<svg xmlns="http://www.w3.org/2000/svg" width="39" height="39" viewBox="0 0 39 39"><g transform="translate(10.551 26.925)"><path d="M139.842,353.725l-.022-.022a.762.762,0,1,0-1.075,1.08l.025.025a.762.762,0,1,0,1.072-1.082Z" transform="translate(-138.521 -353.481)"/></g><g transform="translate(7.161 7.166)"><path d="M115.08,97.684a12.342,12.342,0,0,0-19.425,14.879.762.762,0,0,0,1.32-.76,10.817,10.817,0,1,1,3.933,3.955.762.762,0,0,0-.768,1.316A12.342,12.342,0,0,0,115.08,97.684Z" transform="translate(-94.016 -94.076)"/></g><g transform="translate(0)"><path d="M39,16.153a.762.762,0,0,0-.643-.752l-2.812-.446-1.492-3.6,1.671-2.3a.762.762,0,0,0-.078-.986L30.92,3.347a.762.762,0,0,0-.986-.077l-2.3,1.673-3.6-1.49L23.585.642A.762.762,0,0,0,22.832,0h0L16.153,0A.762.762,0,0,0,15.4.645l-.445,2.812-3.6,1.492-2.3-1.671a.762.762,0,0,0-.986.078L3.347,8.08a.762.762,0,0,0-.077.986l1.673,2.3-1.49,3.6-2.81.447A.762.762,0,0,0,0,16.168l0,6.679a.762.762,0,0,0,.643.752l2.812.446,1.492,3.6-1.671,2.3a.762.762,0,0,0,.078.986L8.08,35.653a.762.762,0,0,0,.986.077l2.3-1.673,3.6,1.49.447,2.81a.762.762,0,0,0,.752.642h0l6.679,0a.762.762,0,0,0,.752-.643l.446-2.812,3.6-1.492,2.3,1.671a.762.762,0,0,0,.986-.078l4.721-4.724a.762.762,0,0,0,.077-.986l-1.673-2.3,1.49-3.6,2.81-.447A.762.762,0,0,0,39,22.832Zm-4.11,6.441a.762.762,0,0,0-.584.461l-1.816,4.388a.762.762,0,0,0,.088.739L34.116,30.3l-3.8,3.8-2.123-1.54a.762.762,0,0,0-.739-.087L23.067,34.3a.762.762,0,0,0-.461.584l-.41,2.591-5.378,0-.412-2.589a.762.762,0,0,0-.461-.584l-4.388-1.816a.761.761,0,0,0-.739.088L8.7,34.116l-3.8-3.8,1.54-2.123a.762.762,0,0,0,.087-.739L4.7,23.067a.762.762,0,0,0-.584-.461L1.526,22.2l0-5.378,2.589-.412a.762.762,0,0,0,.584-.461l1.816-4.388a.762.762,0,0,0-.088-.739L4.884,8.7l3.8-3.8,2.123,1.54a.762.762,0,0,0,.739.087L15.933,4.7a.762.762,0,0,0,.461-.584l.41-2.591,5.378,0,.412,2.589a.762.762,0,0,0,.461.584l4.388,1.816a.762.762,0,0,0,.739-.088L30.3,4.884l3.8,3.8-1.54,2.123a.762.762,0,0,0-.087.739L34.3,15.933a.762.762,0,0,0,.584.461l2.591.41,0,5.378Z" transform="translate(0)"/></g><g transform="translate(11.172 11.17)"><path d="M161.937,155.924a4.219,4.219,0,0,0-3.5-1.045l-3.345-3.345a4.239,4.239,0,0,0-5.766-4.584.762.762,0,0,0-.256,1.246l1.1,1.1a.6.6,0,0,1-.848.848l-1.108-1.108a.762.762,0,0,0-1.245.253,4.235,4.235,0,0,0,4.581,5.778l3.342,3.342A4.237,4.237,0,0,0,160.678,163a.762.762,0,0,0,.253-1.245l-1.1-1.1a.6.6,0,0,1,.848-.848l1.1,1.1a.762.762,0,0,0,1.246-.255A4.261,4.261,0,0,0,161.937,155.924Zm-.18,2.8a2.123,2.123,0,0,0-3,3l.037.037a2.717,2.717,0,0,1-2.326-3.4.762.762,0,0,0-.2-.735l-3.924-3.924a.762.762,0,0,0-.734-.2,2.707,2.707,0,0,1-3.4-2.323l.044.044a2.123,2.123,0,1,0,3-3l-.036-.036a2.717,2.717,0,0,1,2.31,3.4.762.762,0,0,0,.2.734l3.926,3.926a.762.762,0,0,0,.733.2,2.706,2.706,0,0,1,3.4,2.307Z" transform="translate(-146.67 -146.646)"/></g><g transform="translate(20.517 10.865)"><path d="M275.3,145.838a8.854,8.854,0,0,0-5.011-3.176.762.762,0,0,0-.334,1.486,7.325,7.325,0,0,1,4.146,2.629.762.762,0,0,0,1.2-.939Z" transform="translate(-269.356 -142.643)"/></g><g transform="translate(26.415 16.245)"><path d="M348.281,213.83l-.011-.034a.762.762,0,1,0-1.45.468l.01.03a.762.762,0,1,0,1.451-.464Z" transform="translate(-346.783 -213.268)"/></g></svg>