<svg xmlns="http://www.w3.org/2000/svg" width="40" height="40.687" viewBox="0 0 40 40.687">
  <g id="Group_35822" data-name="Group 35822" transform="translate(-536 -2162)">
    <g id="route" transform="translate(535.493 2162)">
      <path id="Path_38105" data-name="Path 38105" d="M14.418,27.7A7.678,7.678,0,0,0,8.635,25a7.675,7.675,0,0,0-5.782,2.7,9.926,9.926,0,0,0,0,12.816l5.782,6.532,5.782-6.532A9.925,9.925,0,0,0,14.418,27.7ZM13.4,39.614,8.636,45,3.868,39.614a8.531,8.531,0,0,1,0-11.017,6.339,6.339,0,0,1,4.767-2.24A6.337,6.337,0,0,1,13.4,28.6,8.532,8.532,0,0,1,13.4,39.614Z" transform="translate(0 -8.047)"/>
      <path id="Path_38106" data-name="Path 38106" d="M45.826,16.619l4.383-4.941a7.452,7.452,0,0,0,0-9.64,5.734,5.734,0,0,0-8.767,0,7.452,7.452,0,0,0,0,9.64Zm-3.37-13.68a4.379,4.379,0,0,1,6.739,0,6.06,6.06,0,0,1,0,7.839l-3.369,3.8-3.37-3.8A6.06,6.06,0,0,1,42.457,2.938Z" transform="translate(-12.607 0)"/>
      <path id="Path_38107" data-name="Path 38107" d="M51.937,54.509a.678.678,0,0,0-.81.513,2.353,2.353,0,0,1-.45.944.678.678,0,1,0,1.066.838,3.737,3.737,0,0,0,.707-1.484A.678.678,0,0,0,51.937,54.509Z" transform="translate(-16.102 -17.54)"/>
      <path id="Path_38108" data-name="Path 38108" d="M31.155,30.9a2.385,2.385,0,0,1-.849-.156.678.678,0,0,0-.484,1.267,3.744,3.744,0,0,0,1.331.245H31.4a.678.678,0,0,0,0-1.356Z" transform="translate(-9.296 -9.883)"/>
      <path id="Path_38109" data-name="Path 38109" d="M29.3,23.824a.678.678,0,0,0,.358-.1,2.341,2.341,0,0,1,.986-.341.678.678,0,1,0-.149-1.349,3.677,3.677,0,0,0-1.556.538.678.678,0,0,0,.36,1.254Z" transform="translate(-9.049 -7.09)"/>
      <path id="Path_38110" data-name="Path 38110" d="M17.1,58H15.742a.678.678,0,1,0,0,1.356H17.1A.678.678,0,1,0,17.1,58Z" transform="translate(-4.686 -18.669)"/>
      <path id="Path_38111" data-name="Path 38111" d="M35.6,40c-.058,0-.116,0-.174,0a.678.678,0,0,0,.027,1.356h.028l1.328,0a.678.678,0,0,0,0-1.356Z" transform="translate(-11.031 -12.875)"/>
      <path id="Path_38112" data-name="Path 38112" d="M35.171,23.356h1.356a.678.678,0,1,0,0-1.356H35.171a.678.678,0,1,0,0,1.356Z" transform="translate(-10.939 -7.081)"/>
      <path id="Path_38113" data-name="Path 38113" d="M47.456,40a.678.678,0,0,0,0,1.356h1.356a.678.678,0,0,0,0-1.356Z" transform="translate(-14.894 -12.875)"/>
      <path id="Path_38114" data-name="Path 38114" d="M50.063,31.678A.678.678,0,0,0,49.385,31H48.029a.678.678,0,1,0,0,1.356h1.356A.678.678,0,0,0,50.063,31.678Z" transform="translate(-15.078 -9.978)"/>
      <path id="Path_38115" data-name="Path 38115" d="M41.456,41.356h1.356a.678.678,0,0,0,0-1.356H41.456a.678.678,0,0,0,0,1.356Z" transform="translate(-12.962 -12.875)"/>
      <path id="Path_38116" data-name="Path 38116" d="M42.527,23.356a.678.678,0,1,0,0-1.356H41.171a.678.678,0,1,0,0,1.356Z" transform="translate(-12.871 -7.081)"/>
      <path id="Path_38117" data-name="Path 38117" d="M36.029,31a.678.678,0,1,0,0,1.356h1.356a.678.678,0,1,0,0-1.356Z" transform="translate(-11.215 -9.978)"/>
      <path id="Path_38118" data-name="Path 38118" d="M44.063,31.678A.678.678,0,0,0,43.385,31H42.029a.678.678,0,1,0,0,1.356h1.356A.678.678,0,0,0,44.063,31.678Z" transform="translate(-13.147 -9.978)"/>
      <path id="Path_38119" data-name="Path 38119" d="M58.745,35.361a.678.678,0,0,0-1.339.215,2.235,2.235,0,0,1,.028.374,2.375,2.375,0,0,1-.1.67.678.678,0,0,0,.46.842.688.688,0,0,0,.191.027A.678.678,0,0,0,58.64,37a3.736,3.736,0,0,0,.151-1.046A3.6,3.6,0,0,0,58.745,35.361Z" transform="translate(-18.284 -11.198)"/>
      <path id="Path_38120" data-name="Path 38120" d="M41.1,58H39.742a.678.678,0,1,0,0,1.356H41.1A.678.678,0,0,0,41.1,58Z" transform="translate(-12.411 -18.669)"/>
      <path id="Path_38121" data-name="Path 38121" d="M35.1,58H33.742a.678.678,0,1,0,0,1.356H35.1A.678.678,0,0,0,35.1,58Z" transform="translate(-10.479 -18.669)"/>
      <path id="Path_38122" data-name="Path 38122" d="M45.777,49.678A.678.678,0,0,0,45.1,49H43.743a.678.678,0,1,0,0,1.356H45.1A.678.678,0,0,0,45.777,49.678Z" transform="translate(-13.698 -15.772)"/>
      <path id="Path_38123" data-name="Path 38123" d="M39.777,49.678A.677.677,0,0,0,39.1,49H37.743a.678.678,0,1,0,0,1.356H39.1A.678.678,0,0,0,39.777,49.678Z" transform="translate(-11.767 -15.772)"/>
      <path id="Path_38124" data-name="Path 38124" d="M47.05,58H45.741a.678.678,0,0,0,0,1.356h1.337l.02-.678v.678a.658.658,0,0,0,.654-.678A.7.7,0,0,0,47.05,58Z" transform="translate(-14.342 -18.669)"/>
      <path id="Path_38125" data-name="Path 38125" d="M50.714,51.673a.678.678,0,0,0,.532-1.1,3.759,3.759,0,0,0-1.274-1.036.678.678,0,0,0-.6,1.215,2.379,2.379,0,0,1,.812.66A.68.68,0,0,0,50.714,51.673Z" transform="translate(-15.606 -15.923)"/>
      <path id="Path_38126" data-name="Path 38126" d="M54.519,39.7a2.355,2.355,0,0,1-.917.184h-.146a.678.678,0,1,0,0,1.356H53.6a3.7,3.7,0,0,0,1.441-.29.678.678,0,0,0-.524-1.25Z" transform="translate(-16.825 -12.763)"/>
      <path id="Path_38127" data-name="Path 38127" d="M27.535,28.592a.679.679,0,0,0,.433-.856A2.369,2.369,0,0,1,27.849,27a2.66,2.66,0,0,1,.019-.3.678.678,0,0,0-1.345-.17,3.949,3.949,0,0,0-.03.471,3.733,3.733,0,0,0,.185,1.165.679.679,0,0,0,.644.467A.658.658,0,0,0,27.535,28.592Z" transform="translate(-8.364 -8.347)"/>
      <path id="Path_38128" data-name="Path 38128" d="M23.1,58H21.742a.678.678,0,1,0,0,1.356H23.1A.678.678,0,1,0,23.1,58Z" transform="translate(-6.617 -18.669)"/>
      <path id="Path_38129" data-name="Path 38129" d="M33.293,49.563a.678.678,0,0,0,.283-1.295,2.4,2.4,0,0,1-.833-.635.678.678,0,0,0-1.038.873,3.755,3.755,0,0,0,1.307.995A.683.683,0,0,0,33.293,49.563Z" transform="translate(-9.99 -15.254)"/>
      <path id="Path_38130" data-name="Path 38130" d="M55.653,31.5a3.688,3.688,0,0,0-1.571-.49.678.678,0,0,0-.106,1.352,2.335,2.335,0,0,1,1,.311.678.678,0,1,0,.68-1.173Z" transform="translate(-17.009 -9.982)"/>
      <path id="Path_38131" data-name="Path 38131" d="M29.1,58H27.742a.678.678,0,0,0,0,1.356H29.1A.678.678,0,1,0,29.1,58Z" transform="translate(-8.548 -18.669)"/>
      <path id="Path_38132" data-name="Path 38132" d="M31.917,43.872a2.356,2.356,0,0,1,.42-.958.678.678,0,0,0-1.092-.8,3.716,3.716,0,0,0-.66,1.507.679.679,0,0,0,.538.794.678.678,0,0,0,.794-.539Z" transform="translate(-9.677 -13.465)"/>
      <path id="Path_38133" data-name="Path 38133" d="M47.223,11.459a3.73,3.73,0,1,0-3.73-3.73A3.735,3.735,0,0,0,47.223,11.459Zm0-6.1A2.373,2.373,0,1,1,44.849,7.73,2.376,2.376,0,0,1,47.223,5.356Z" transform="translate(-13.836 -1.288)"/>
      <path id="Path_38134" data-name="Path 38134" d="M10.562,31a4.069,4.069,0,1,0,4.069,4.069A4.073,4.073,0,0,0,10.562,31Zm0,6.781a2.712,2.712,0,1,1,2.712-2.712A2.715,2.715,0,0,1,10.562,37.781Z" transform="translate(-1.927 -9.978)"/>
    </g>
    <g id="route-2" data-name="route" transform="translate(535.493 2162)">
      <path id="Path_38105-2" data-name="Path 38105" d="M14.418,27.7A7.678,7.678,0,0,0,8.635,25a7.675,7.675,0,0,0-5.782,2.7,9.926,9.926,0,0,0,0,12.816l5.782,6.532,5.782-6.532A9.925,9.925,0,0,0,14.418,27.7ZM13.4,39.614,8.636,45,3.868,39.614a8.531,8.531,0,0,1,0-11.017,6.339,6.339,0,0,1,4.767-2.24A6.337,6.337,0,0,1,13.4,28.6,8.532,8.532,0,0,1,13.4,39.614Z" transform="translate(0 -8.047)"/>
      <path id="Path_38106-2" data-name="Path 38106" d="M45.826,16.619l4.383-4.941a7.452,7.452,0,0,0,0-9.64,5.734,5.734,0,0,0-8.767,0,7.452,7.452,0,0,0,0,9.64Zm-3.37-13.68a4.379,4.379,0,0,1,6.739,0,6.06,6.06,0,0,1,0,7.839l-3.369,3.8-3.37-3.8A6.06,6.06,0,0,1,42.457,2.938Z" transform="translate(-12.607 0)"/>
      <path id="Path_38107-2" data-name="Path 38107" d="M51.937,54.509a.678.678,0,0,0-.81.513,2.353,2.353,0,0,1-.45.944.678.678,0,1,0,1.066.838,3.737,3.737,0,0,0,.707-1.484A.678.678,0,0,0,51.937,54.509Z" transform="translate(-16.102 -17.54)"/>
      <path id="Path_38108-2" data-name="Path 38108" d="M31.155,30.9a2.385,2.385,0,0,1-.849-.156.678.678,0,0,0-.484,1.267,3.744,3.744,0,0,0,1.331.245H31.4a.678.678,0,0,0,0-1.356Z" transform="translate(-9.296 -9.883)"/>
      <path id="Path_38109-2" data-name="Path 38109" d="M29.3,23.824a.678.678,0,0,0,.358-.1,2.341,2.341,0,0,1,.986-.341.678.678,0,1,0-.149-1.349,3.677,3.677,0,0,0-1.556.538.678.678,0,0,0,.36,1.254Z" transform="translate(-9.049 -7.09)"/>
      <path id="Path_38110-2" data-name="Path 38110" d="M17.1,58H15.742a.678.678,0,1,0,0,1.356H17.1A.678.678,0,1,0,17.1,58Z" transform="translate(-4.686 -18.669)"/>
      <path id="Path_38111-2" data-name="Path 38111" d="M35.6,40c-.058,0-.116,0-.174,0a.678.678,0,0,0,.027,1.356h.028l1.328,0a.678.678,0,0,0,0-1.356Z" transform="translate(-11.031 -12.875)"/>
      <path id="Path_38112-2" data-name="Path 38112" d="M35.171,23.356h1.356a.678.678,0,1,0,0-1.356H35.171a.678.678,0,1,0,0,1.356Z" transform="translate(-10.939 -7.081)"/>
      <path id="Path_38113-2" data-name="Path 38113" d="M47.456,40a.678.678,0,0,0,0,1.356h1.356a.678.678,0,0,0,0-1.356Z" transform="translate(-14.894 -12.875)"/>
      <path id="Path_38114-2" data-name="Path 38114" d="M50.063,31.678A.678.678,0,0,0,49.385,31H48.029a.678.678,0,1,0,0,1.356h1.356A.678.678,0,0,0,50.063,31.678Z" transform="translate(-15.078 -9.978)"/>
      <path id="Path_38115-2" data-name="Path 38115" d="M41.456,41.356h1.356a.678.678,0,0,0,0-1.356H41.456a.678.678,0,0,0,0,1.356Z" transform="translate(-12.962 -12.875)"/>
      <path id="Path_38116-2" data-name="Path 38116" d="M42.527,23.356a.678.678,0,1,0,0-1.356H41.171a.678.678,0,1,0,0,1.356Z" transform="translate(-12.871 -7.081)"/>
      <path id="Path_38117-2" data-name="Path 38117" d="M36.029,31a.678.678,0,1,0,0,1.356h1.356a.678.678,0,1,0,0-1.356Z" transform="translate(-11.215 -9.978)"/>
      <path id="Path_38118-2" data-name="Path 38118" d="M44.063,31.678A.678.678,0,0,0,43.385,31H42.029a.678.678,0,1,0,0,1.356h1.356A.678.678,0,0,0,44.063,31.678Z" transform="translate(-13.147 -9.978)"/>
      <path id="Path_38119-2" data-name="Path 38119" d="M58.745,35.361a.678.678,0,0,0-1.339.215,2.235,2.235,0,0,1,.028.374,2.375,2.375,0,0,1-.1.67.678.678,0,0,0,.46.842.688.688,0,0,0,.191.027A.678.678,0,0,0,58.64,37a3.736,3.736,0,0,0,.151-1.046A3.6,3.6,0,0,0,58.745,35.361Z" transform="translate(-18.284 -11.198)"/>
      <path id="Path_38120-2" data-name="Path 38120" d="M41.1,58H39.742a.678.678,0,1,0,0,1.356H41.1A.678.678,0,0,0,41.1,58Z" transform="translate(-12.411 -18.669)"/>
      <path id="Path_38121-2" data-name="Path 38121" d="M35.1,58H33.742a.678.678,0,1,0,0,1.356H35.1A.678.678,0,0,0,35.1,58Z" transform="translate(-10.479 -18.669)"/>
      <path id="Path_38122-2" data-name="Path 38122" d="M45.777,49.678A.678.678,0,0,0,45.1,49H43.743a.678.678,0,1,0,0,1.356H45.1A.678.678,0,0,0,45.777,49.678Z" transform="translate(-13.698 -15.772)"/>
      <path id="Path_38123-2" data-name="Path 38123" d="M39.777,49.678A.677.677,0,0,0,39.1,49H37.743a.678.678,0,1,0,0,1.356H39.1A.678.678,0,0,0,39.777,49.678Z" transform="translate(-11.767 -15.772)"/>
      <path id="Path_38124-2" data-name="Path 38124" d="M47.05,58H45.741a.678.678,0,0,0,0,1.356h1.337l.02-.678v.678a.658.658,0,0,0,.654-.678A.7.7,0,0,0,47.05,58Z" transform="translate(-14.342 -18.669)"/>
      <path id="Path_38125-2" data-name="Path 38125" d="M50.714,51.673a.678.678,0,0,0,.532-1.1,3.759,3.759,0,0,0-1.274-1.036.678.678,0,0,0-.6,1.215,2.379,2.379,0,0,1,.812.66A.68.68,0,0,0,50.714,51.673Z" transform="translate(-15.606 -15.923)"/>
      <path id="Path_38126-2" data-name="Path 38126" d="M54.519,39.7a2.355,2.355,0,0,1-.917.184h-.146a.678.678,0,1,0,0,1.356H53.6a3.7,3.7,0,0,0,1.441-.29.678.678,0,0,0-.524-1.25Z" transform="translate(-16.825 -12.763)"/>
      <path id="Path_38127-2" data-name="Path 38127" d="M27.535,28.592a.679.679,0,0,0,.433-.856A2.369,2.369,0,0,1,27.849,27a2.66,2.66,0,0,1,.019-.3.678.678,0,0,0-1.345-.17,3.949,3.949,0,0,0-.03.471,3.733,3.733,0,0,0,.185,1.165.679.679,0,0,0,.644.467A.658.658,0,0,0,27.535,28.592Z" transform="translate(-8.364 -8.347)"/>
      <path id="Path_38128-2" data-name="Path 38128" d="M23.1,58H21.742a.678.678,0,1,0,0,1.356H23.1A.678.678,0,1,0,23.1,58Z" transform="translate(-6.617 -18.669)"/>
      <path id="Path_38129-2" data-name="Path 38129" d="M33.293,49.563a.678.678,0,0,0,.283-1.295,2.4,2.4,0,0,1-.833-.635.678.678,0,0,0-1.038.873,3.755,3.755,0,0,0,1.307.995A.683.683,0,0,0,33.293,49.563Z" transform="translate(-9.99 -15.254)"/>
      <path id="Path_38130-2" data-name="Path 38130" d="M55.653,31.5a3.688,3.688,0,0,0-1.571-.49.678.678,0,0,0-.106,1.352,2.335,2.335,0,0,1,1,.311.678.678,0,1,0,.68-1.173Z" transform="translate(-17.009 -9.982)"/>
      <path id="Path_38131-2" data-name="Path 38131" d="M29.1,58H27.742a.678.678,0,0,0,0,1.356H29.1A.678.678,0,1,0,29.1,58Z" transform="translate(-8.548 -18.669)"/>
      <path id="Path_38132-2" data-name="Path 38132" d="M31.917,43.872a2.356,2.356,0,0,1,.42-.958.678.678,0,0,0-1.092-.8,3.716,3.716,0,0,0-.66,1.507.679.679,0,0,0,.538.794.678.678,0,0,0,.794-.539Z" transform="translate(-9.677 -13.465)"/>
      <path id="Path_38133-2" data-name="Path 38133" d="M47.223,11.459a3.73,3.73,0,1,0-3.73-3.73A3.735,3.735,0,0,0,47.223,11.459Zm0-6.1A2.373,2.373,0,1,1,44.849,7.73,2.376,2.376,0,0,1,47.223,5.356Z" transform="translate(-13.836 -1.288)"/>
      <path id="Path_38134-2" data-name="Path 38134" d="M10.562,31a4.069,4.069,0,1,0,4.069,4.069A4.073,4.073,0,0,0,10.562,31Zm0,6.781a2.712,2.712,0,1,1,2.712-2.712A2.715,2.715,0,0,1,10.562,37.781Z" transform="translate(-1.927 -9.978)"/>
    </g>
  </g>
</svg>
