<svg xmlns="http://www.w3.org/2000/svg" width="36.5" height="36.5" viewBox="0 0 36.5 36.5">
  <g id="data-collection_1_" data-name="data-collection (1)" transform="translate(-2 -2)">
    <path id="Path_38150" data-name="Path 38150" d="M27,12h6.083v1.217H27Z" transform="translate(-9.792 -3.917)" fill="#6fbe4a"/>
    <path id="Path_38151" data-name="Path 38151" d="M27,16h6.083v1.217H27Z" transform="translate(-9.792 -5.483)" fill="#6fbe4a"/>
    <path id="Path_38152" data-name="Path 38152" d="M37.417,33.633V28.767a.609.609,0,0,0-.438-.584L22.817,24.052V16.6h4.258a.608.608,0,0,0,.608-.608V6.258a.607.607,0,0,0-.178-.43l-3.65-3.65A.606.606,0,0,0,23.425,2H17.342a.608.608,0,0,0-.608.608V15.992a.608.608,0,0,0,.608.608H21.6v7.452L7.438,28.183A.609.609,0,0,0,7,28.767v4.867a.609.609,0,0,0,.438.584l14.6,4.258a.608.608,0,0,0,.341,0l14.6-4.258A.609.609,0,0,0,37.417,33.633ZM24.033,4.077,25.606,5.65H24.033Zm-6.083-.86h4.867V6.258a.608.608,0,0,0,.608.608h3.042v8.517H17.95Zm3.65,22.1v3.2L20.205,27.12l-.86.86,2.433,2.433a.608.608,0,0,0,.86,0l2.433-2.433-.86-.86-1.395,1.395v-3.2l11.819,3.447L22.208,32.391,9.781,28.767ZM8.217,29.578l13.383,3.9v3.6l-13.383-3.9Zm14.6,7.5v-3.6l13.383-3.9v3.6Z" transform="translate(-1.958)"/>
    <path id="Path_38153" data-name="Path 38153" d="M27,8h2.433V9.217H27Z" transform="translate(-9.792 -2.35)" fill="#6fbe4a"/>
    <path id="Path_38154" data-name="Path 38154" d="M2.608,16.6H6.867a3.045,3.045,0,0,0,3.042,3.042h1.825a1.827,1.827,0,0,1,1.825,1.825v.965l-1.395-1.395-.86.86,2.433,2.433a.608.608,0,0,0,.86,0L17.03,21.9l-.86-.86-1.395,1.395v-.965a3.045,3.045,0,0,0-3.042-3.042H9.908A1.827,1.827,0,0,1,8.083,16.6h4.258a.608.608,0,0,0,.608-.608V6.258a.607.607,0,0,0-.178-.43l-3.65-3.65A.606.606,0,0,0,8.692,2H2.608A.608.608,0,0,0,2,2.608V15.992a.608.608,0,0,0,.608.608ZM9.3,4.077,10.873,5.65H9.3Zm-6.083-.86H8.083V6.258a.608.608,0,0,0,.608.608h3.042v8.517H3.217Z"/>
    <path id="Path_38155" data-name="Path 38155" d="M6,12h6.083v1.217H6Z" transform="translate(-1.567 -3.917)" fill="#6fbe4a"/>
    <path id="Path_38156" data-name="Path 38156" d="M6,16h6.083v1.217H6Z" transform="translate(-1.567 -5.483)" fill="#6fbe4a"/>
    <path id="Path_38157" data-name="Path 38157" d="M6,20h6.083v1.217H6Z" transform="translate(-1.567 -7.05)" fill="#6fbe4a"/>
    <path id="Path_38158" data-name="Path 38158" d="M6,8H8.433V9.217H6Z" transform="translate(-1.567 -2.35)" fill="#6fbe4a"/>
    <path id="Path_38159" data-name="Path 38159" d="M52.323,15.992V6.258a.607.607,0,0,0-.178-.43l-3.65-3.65A.606.606,0,0,0,48.065,2H41.981a.608.608,0,0,0-.608.608V15.992a.608.608,0,0,0,.608.608H46.24a1.827,1.827,0,0,1-1.825,1.825H42.59a3.045,3.045,0,0,0-3.042,3.042v.965l-1.395-1.395-.86.86,2.433,2.433a.608.608,0,0,0,.86,0L43.02,21.9l-.86-.86-1.395,1.395v-.965a1.827,1.827,0,0,1,1.825-1.825h1.825A3.045,3.045,0,0,0,47.456,16.6h4.258A.608.608,0,0,0,52.323,15.992ZM48.673,4.077,50.246,5.65H48.673ZM42.59,15.383V3.217h4.867V6.258a.608.608,0,0,0,.608.608h3.042v8.517Z" transform="translate(-13.823)"/>
    <path id="Path_38160" data-name="Path 38160" d="M48,12h6.083v1.217H48Z" transform="translate(-18.017 -3.917)" fill="#6fbe4a"/>
    <path id="Path_38161" data-name="Path 38161" d="M48,16h6.083v1.217H48Z" transform="translate(-18.017 -5.483)" fill="#6fbe4a"/>
    <path id="Path_38162" data-name="Path 38162" d="M48,20h6.083v1.217H48Z" transform="translate(-18.017 -7.05)" fill="#6fbe4a"/>
    <path id="Path_38163" data-name="Path 38163" d="M48,8h2.433V9.217H48Z" transform="translate(-18.017 -2.35)" fill="#6fbe4a"/>
    <path id="Path_38164" data-name="Path 38164" d="M27,20h1.217v1.217H27Z" transform="translate(-9.792 -7.05)" fill="#6fbe4a"/>
    <path id="Path_38165" data-name="Path 38165" d="M31,20h1.217v1.217H31Z" transform="translate(-11.358 -7.05)" fill="#6fbe4a"/>
    <path id="Path_38166" data-name="Path 38166" d="M35,20h1.217v1.217H35Z" transform="translate(-12.925 -7.05)" fill="#6fbe4a"/>
  </g>
</svg>
