<svg id="Group_35690" data-name="Group 35690" xmlns="http://www.w3.org/2000/svg" width="35" height="35" viewBox="0 0 35 35">
  <g id="Outline">
    <path id="Path_37992" data-name="Path 37992" d="M5.169,5.174a.6.6,0,0,0-.123.193A.6.6,0,0,0,5.169,6,.586.586,0,0,0,6,5.174.611.611,0,0,0,5.169,5.174Z" transform="translate(-3.25 -3.255)"/>
    <path id="Path_37993" data-name="Path 37993" d="M8.362,5.049a.544.544,0,0,0-.193.122.591.591,0,0,0,0,.828.583.583,0,0,0,1-.414A.614.614,0,0,0,9,5.171.593.593,0,0,0,8.362,5.049Z" transform="translate(-4.5 -3.252)"/>
    <path id="Path_37994" data-name="Path 37994" d="M11.362,5.05a.6.6,0,0,0-.192.122.591.591,0,0,0,0,.828.674.674,0,0,0,.192.122.583.583,0,0,0,.222.047.577.577,0,0,0,.583-.583A.614.614,0,0,0,12,5.173.6.6,0,0,0,11.362,5.05Z" transform="translate(-5.75 -3.253)"/>
    <rect id="Rectangle_1279" data-name="Rectangle 1279" width="9" transform="translate(7 22)"/>
    <path id="Path_37995" data-name="Path 37995" d="M34.766,9a2.217,2.217,0,0,0-1.579.655l-2.021,2.021V3.75A1.75,1.75,0,0,0,29.417,2H3.75A1.75,1.75,0,0,0,2,3.75v31.5A1.75,1.75,0,0,0,3.75,37H29.417a1.75,1.75,0,0,0,1.75-1.75V17.992l5.179-5.179A2.233,2.233,0,0,0,34.766,9ZM3.167,3.75a.583.583,0,0,1,.583-.583H29.417A.583.583,0,0,1,30,3.75V5.5H3.167ZM30,35.25a.583.583,0,0,1-.583.583H3.75a.583.583,0,0,1-.583-.583V6.667H30v6.175l-3.5,3.5v-1.75L20.325,8.417H6.667V34.083H26.5V22.658l3.5-3.5ZM16.074,26.768l-1.579,4.737,4.737-1.579,1.676-1.677,4.425-4.425v9.092H7.833V9.583H19.5v5.833h5.833v2.092L17.75,25.092Zm1.677-.027,1.508,1.509-.657.657-2.263.754.754-2.263Zm2.917-16.333,3.842,3.842H20.667Zm-.583,17.017-1.508-1.508L32.333,12.158l1.508,1.508ZM35.521,11.988l-.854.854-1.508-1.509.854-.854a1.067,1.067,0,1,1,1.509,1.509Z" transform="translate(-2 -2)"/>
  </g>
  <rect id="Rectangle_1280" data-name="Rectangle 1280" width="7" height="1" transform="translate(8 11)" fill="#6fbe4a"/>
  <rect id="Rectangle_1281" data-name="Rectangle 1281" width="7" height="1" transform="translate(8 14)" fill="#6fbe4a"/>
  <rect id="Rectangle_1282" data-name="Rectangle 1282" width="9" height="1" transform="translate(8 17)" fill="#6fbe4a"/>
  <rect id="Rectangle_1283" data-name="Rectangle 1283" width="6" height="1" transform="translate(8 20)" fill="#6fbe4a"/>
  <rect id="Rectangle_1284" data-name="Rectangle 1284" width="4" height="1" transform="translate(8 23)" fill="#6fbe4a"/>
  <rect id="Rectangle_1285" data-name="Rectangle 1285" width="3" height="1" transform="translate(8 26)" fill="#6fbe4a"/>
</svg>
