<svg xmlns="http://www.w3.org/2000/svg" width="33.211" height="39" viewBox="0 0 33.211 39"><g transform="translate(0 0.001)"><path d="M33.172,10.581v-.03c-.017-.375-.028-.771-.035-1.212a4.133,4.133,0,0,0-3.892-4.049A16.039,16.039,0,0,1,18.327.688L18.3.664a2.5,2.5,0,0,0-3.392,0l-.025.024a16.041,16.041,0,0,1-10.917,4.6A4.133,4.133,0,0,0,.076,9.339c-.007.438-.018.834-.035,1.212l0,.07c-.087,4.572-.2,10.263,1.708,15.428a19.64,19.64,0,0,0,4.712,7.339,24.647,24.647,0,0,0,9.22,5.454,2.856,2.856,0,0,0,.378.1,2.791,2.791,0,0,0,1.1,0,2.864,2.864,0,0,0,.379-.1,24.664,24.664,0,0,0,9.21-5.457,19.667,19.667,0,0,0,4.712-7.341C33.367,20.863,33.259,15.162,33.172,10.581ZM29.309,25.252C27.3,30.7,23.2,34.434,16.779,36.681a.575.575,0,0,1-.073.02.514.514,0,0,1-.2,0,.57.57,0,0,1-.072-.019C10,34.439,5.9,30.7,3.895,25.258,2.14,20.5,2.239,15.273,2.327,10.665v-.026c.018-.4.03-.811.036-1.267A1.837,1.837,0,0,1,4.1,7.574a20.078,20.078,0,0,0,6.815-1.5,17.83,17.83,0,0,0,5.554-3.731.211.211,0,0,1,.283,0A17.837,17.837,0,0,0,22.3,6.075a20.079,20.079,0,0,0,6.815,1.5,1.837,1.837,0,0,1,1.731,1.8c.007.458.019.873.037,1.266C30.972,15.253,31.069,20.481,29.309,25.252Zm0,0" transform="translate(0)"/><path d="M100.118,128.41a9.719,9.719,0,1,0,9.719,9.719A9.73,9.73,0,0,0,100.118,128.41Zm0,17.15a7.431,7.431,0,1,1,7.431-7.431A7.439,7.439,0,0,1,100.118,145.56Zm0,0" transform="translate(-83.512 -118.63)"/><path d="M161.366,212.326l-4.514,4.514-1.225-1.225a1.144,1.144,0,1,0-1.618,1.618l2.035,2.035a1.144,1.144,0,0,0,1.618,0l5.324-5.324a1.144,1.144,0,0,0-1.618-1.618Zm0,0" transform="translate(-141.967 -195.844)"/></g></svg>