<svg xmlns="http://www.w3.org/2000/svg" width="35.667" height="35.665" viewBox="0 0 35.667 35.665">
  <g id="telephone" transform="translate(-0.002 -0.02)">
    <g id="Group_35805" data-name="Group 35805" transform="translate(0.002 1.909)">
      <g id="Group_35804" data-name="Group 35804" transform="translate(0)">
        <path id="Path_38096" data-name="Path 38096" d="M33.019,51.7l-4.414-4.567-.012-.013a3.133,3.133,0,0,0-4.433,0l-2.015,2.015a2.373,2.373,0,0,1-3.358,0h0l-7.008-6.842a2.373,2.373,0,0,1,0-3.358l2.015-2.015a3.138,3.138,0,0,0,0-4.433L9.36,28.055a3.138,3.138,0,0,0-4.433,0L3.449,29.533l-.134.134a11.3,11.3,0,0,0,0,15.986L15.428,57.6a11.3,11.3,0,0,0,15.97.016c.024-.022,1.59-1.465,1.614-1.488A3.138,3.138,0,0,0,33.019,51.7ZM6.4,29.533a1.046,1.046,0,0,1,1.478,0l4.433,4.433a1.044,1.044,0,0,1,0,1.478l-.739.739L5.666,30.272Zm10.5,26.589L4.793,44.175a9.208,9.208,0,0,1-.577-12.4l5.89,5.89a4.47,4.47,0,0,0,.2,6.106l7.009,6.843a4.46,4.46,0,0,0,6.1.193L29.3,56.7A9.185,9.185,0,0,1,16.905,56.122Zm14.641-1.485-.7.647L24.9,49.339l.739-.739A1.044,1.044,0,0,1,27.11,48.6l4.424,4.577A1.046,1.046,0,0,1,31.547,54.638Z" transform="translate(-0.002 -27.139)"/>
      </g>
    </g>
    <g id="Group_35807" data-name="Group 35807" transform="translate(16.861 0.02)">
      <g id="Group_35806" data-name="Group 35806" transform="translate(0 0)">
        <path id="Path_38097" data-name="Path 38097" d="M243.066.02a1.045,1.045,0,0,0,0,2.09,15.691,15.691,0,0,1,15.673,15.673,1.045,1.045,0,0,0,2.09,0A17.753,17.753,0,0,0,243.066.02Z" transform="translate(-242.021 -0.02)"/>
      </g>
    </g>
    <g id="Group_35809" data-name="Group 35809" transform="translate(16.861 4.199)">
      <g id="Group_35808" data-name="Group 35808">
        <path id="Path_38098" data-name="Path 38098" d="M243.066,60.015a1.045,1.045,0,0,0,0,2.09A11.507,11.507,0,0,1,254.559,73.6a1.045,1.045,0,1,0,2.09,0A13.6,13.6,0,0,0,243.066,60.015Z" transform="translate(-242.021 -60.015)"/>
      </g>
    </g>
    <g id="Group_35811" data-name="Group 35811" transform="translate(16.861 8.379)">
      <g id="Group_35810" data-name="Group 35810">
        <path id="Path_38099" data-name="Path 38099" d="M243.066,120.011a1.045,1.045,0,0,0,0,2.09,7.322,7.322,0,0,1,7.314,7.314,1.045,1.045,0,1,0,2.09,0A9.414,9.414,0,0,0,243.066,120.011Z" transform="translate(-242.021 -120.011)"/>
      </g>
    </g>
    <g id="Group_35813" data-name="Group 35813" transform="translate(16.861 12.558)">
      <g id="Group_35812" data-name="Group 35812">
        <path id="Path_38100" data-name="Path 38100" d="M243.066,180.006a1.045,1.045,0,0,0,0,2.09,3.138,3.138,0,0,1,3.135,3.135,1.045,1.045,0,1,0,2.09,0A5.23,5.23,0,0,0,243.066,180.006Z" transform="translate(-242.021 -180.006)"/>
      </g>
    </g>
  </g>
</svg>
