<svg id="work" xmlns="http://www.w3.org/2000/svg" width="40.999" height="40.999" viewBox="0 0 40.999 40.999">
  <g id="Group_35815" data-name="Group 35815" transform="translate(10.933 28.699)">
    <g id="Group_35814" data-name="Group 35814">
      <path id="Path_38101" data-name="Path 38101" d="M155.264,342.9a3.38,3.38,0,0,0,.752-2.112v-1.367a3.417,3.417,0,0,0-6.833,0v1.367a3.38,3.38,0,0,0,.752,2.112,3.409,3.409,0,0,0-2.118,1.326A3.409,3.409,0,0,0,145.7,342.9a3.38,3.38,0,0,0,.752-2.112v-1.367a3.417,3.417,0,0,0-6.833,0v1.367a3.38,3.38,0,0,0,.752,2.112,3.409,3.409,0,0,0-2.118,1.326,3.409,3.409,0,0,0-2.118-1.326,3.38,3.38,0,0,0,.752-2.112v-1.367a3.417,3.417,0,0,0-6.833,0v1.367a3.38,3.38,0,0,0,.752,2.112,3.417,3.417,0,0,0-2.8,3.354v2.05h1.367v-2.05a2.05,2.05,0,0,1,2.05-2.05h4.1a2.05,2.05,0,0,1,2.05,2.05v2.05h1.367v-2.05a2.05,2.05,0,0,1,2.05-2.05h4.1a2.05,2.05,0,0,1,2.05,2.05v2.05H148.5v-2.05a2.05,2.05,0,0,1,2.05-2.05h4.1a2.05,2.05,0,0,1,2.05,2.05v2.05h1.367v-2.05A3.417,3.417,0,0,0,155.264,342.9Zm-19.748-2.112a2.05,2.05,0,1,1-4.1,0v-1.367a2.05,2.05,0,0,1,4.1,0Zm9.566,0a2.05,2.05,0,0,1-4.1,0v-1.367a2.05,2.05,0,0,1,4.1,0Zm9.566,0a2.05,2.05,0,1,1-4.1,0v-1.367a2.05,2.05,0,0,1,4.1,0Z" transform="translate(-128 -336)"/>
    </g>
  </g>
  <g id="Group_35817" data-name="Group 35817" transform="translate(0 6.833)">
    <g id="Group_35816" data-name="Group 35816">
      <path id="Path_38102" data-name="Path 38102" d="M16.65,86.881a.682.682,0,0,0-.25-.048H13.666a.683.683,0,0,0-.642.45L12.3,89.275l-.024-.065a3.622,3.622,0,0,0-3.393-2.377H8.865a3.381,3.381,0,0,0,.7-2.05V83.417a3.417,3.417,0,1,0-6.833,0v1.367a3.381,3.381,0,0,0,.7,2.05H3.417A3.421,3.421,0,0,0,0,90.25v8.2a.683.683,0,0,0,.683.683h2.05v6.628l-1.252,1.876A.683.683,0,0,0,2.05,108.7h8.2a.683.683,0,0,0,.569-1.063l-1.252-1.876V93.144l.172.342a2.794,2.794,0,0,0,5.093-.212l1.11-2.774,1.093-2.733A.683.683,0,0,0,16.65,86.881ZM4.1,83.417a2.05,2.05,0,1,1,4.1,0v1.367a2.05,2.05,0,1,1-4.1,0ZM2.733,97.766H1.367V96.4H2.733Zm4.1,9.566v-8.2H5.467v8.2H3.327l.658-.987a.688.688,0,0,0,.115-.379v-8.2H8.2v8.2a.688.688,0,0,0,.115.379l.658.987ZM13.562,92.77a1.427,1.427,0,0,1-2.6.108L9.5,89.944a.683.683,0,0,0-1.3.305V96.4H4.1V90.25a.683.683,0,1,0-1.367,0v4.783H1.367V90.25a2.05,2.05,0,0,1,2.05-2.05h2.05v6.833H6.833V88.2h2.05a2.249,2.249,0,0,1,2.108,1.477l.666,1.832a.683.683,0,0,0,1.285,0l.209-.575H14.3Zm1.281-3.2h-1.2l.5-1.367H15.39Z" transform="translate(0 -80)"/>
    </g>
  </g>
  <g id="Group_35819" data-name="Group 35819" transform="translate(10.933)">
    <g id="Group_35818" data-name="Group 35818">
      <path id="Path_38103" data-name="Path 38103" d="M157.383,4.1a.683.683,0,0,0,.683-.683V.683A.683.683,0,0,0,157.383,0h-28.7A.683.683,0,0,0,128,.683V3.417a.683.683,0,0,0,.683.683h.683v8.2h1.367V4.1h24.6V19.133H133.467V20.5h8.883v3.02l-4.442,2.536.678,1.186,3.764-2.149v2.239h1.367V25.093l3.758,2.149.678-1.186-4.436-2.536V20.5h14.35V19.133H156.7V4.1ZM129.367,2.733V1.367H156.7V2.733Z" transform="translate(-128)"/>
    </g>
  </g>
  <g id="Group_35821" data-name="Group 35821" transform="translate(18.053 6.854)">
    <g id="Group_35820" data-name="Group 35820">
      <path id="Path_38104" data-name="Path 38104" d="M226.948,80.923l-2.733-.683-.332,1.326,1.28.32-5.186,3.63L216.959,83.1a.683.683,0,0,0-.824-.022L211.352,86.5l.794,1.111,4.363-3.116,3.013,2.411a.683.683,0,0,0,.82.026L226.1,82.9v1.421h1.367V81.586A.683.683,0,0,0,226.948,80.923Z" transform="translate(-211.352 -80.24)"/>
    </g>
  </g>
</svg>
