<svg xmlns="http://www.w3.org/2000/svg" width="559.504" height="587.512" viewBox="0 0 559.504 587.512">
  <g id="calendar" transform="translate(0.578)">
    <path id="Path_35" data-name="Path 35" d="M113.926,286.375h193.75a12.5,12.5,0,0,0,0-25H113.926a12.5,12.5,0,1,0,0,25Zm0,0" fill="#6fbe4a"/>
    <path id="Path_36" data-name="Path 36" d="M229.922,342.625h-116a12.5,12.5,0,1,0,0,25h116a12.5,12.5,0,0,0,0-25Zm0,0" fill="#6fbe4a"/>
    <path id="Path_37" data-name="Path 37" d="M446.922,314.871v-216a62.518,62.518,0,0,0-62.5-62.5h-51.25V12.5a12.5,12.5,0,0,0-25,0V36.375h-170V12.5a12.5,12.5,0,0,0-25,0V36.375H61.922a62.523,62.523,0,0,0-62.5,62.5V437.5a62.528,62.528,0,0,0,62.5,62.5H293.3a137.523,137.523,0,0,0,265.625-50c.121-67.125-48.254-123.125-112-135.129ZM62.051,61.375H113.3V85.25a12.5,12.5,0,0,0,25,0V61.375h170V85.25a12.5,12.5,0,0,0,25,0V61.375h51.25a37.61,37.61,0,0,1,37.5,37.5v30.25H24.551V98.875A37.527,37.527,0,0,1,62.051,61.375Zm0,413.625a37.608,37.608,0,0,1-37.5-37.5V154H421.922V312.5h-.375A137.712,137.712,0,0,0,286.3,475Zm359.5,87.5A112.5,112.5,0,1,1,534.047,450,112.5,112.5,0,0,1,421.547,562.5Zm0,0" fill="#6fbe4a"/>
    <path id="Path_38" data-name="Path 38" d="M479.422,405.125,405.176,476,366.8,437.5a12.461,12.461,0,0,0-17.621,17.625L396.3,502.25a12.289,12.289,0,0,0,8.879,3.625,12.091,12.091,0,0,0,8.621-3.5L496.8,423a12.437,12.437,0,0,0,.375-17.621A12.713,12.713,0,0,0,479.422,405.125Zm0,0" fill="#6fbe4a"/>
  </g>
</svg>
