<svg xmlns="http://www.w3.org/2000/svg" width="34.002" height="29.821" viewBox="0 0 34.002 29.821"><g transform="translate(0 -31.479)"><g transform="translate(0 31.479)"><g transform="translate(0 0)"><path d="M31.229,31.479H2.773A2.777,2.777,0,0,0,0,34.252V50.89a2.777,2.777,0,0,0,2.773,2.774H4.395v6.846a.791.791,0,0,0,1.35.559l7.4-7.4H31.229A2.777,2.777,0,0,0,34,50.89V34.252A2.776,2.776,0,0,0,31.229,31.479Zm0,20.6H12.821a.787.787,0,0,0-.531.206l0,0-.029.027L5.976,58.6V52.873a.575.575,0,0,0,0-.073.79.79,0,0,0-.787-.717H2.773A1.193,1.193,0,0,1,1.581,50.89V34.252A1.193,1.193,0,0,1,2.773,33.06H31.229a1.193,1.193,0,0,1,1.192,1.192V50.89h0A1.193,1.193,0,0,1,31.229,52.082Z" transform="translate(0 -31.479)"/></g></g><g transform="translate(6.155 37.254)"><g transform="translate(0 0)"><path d="M98.081,118.437H93.473a.791.791,0,0,0,0,1.581h4.609a.791.791,0,1,0,0-1.581Z" transform="translate(-92.682 -118.437)"/></g></g><g transform="translate(6.155 41.781)"><g transform="translate(0 0)"><path d="M106.3,186.6H93.472a.791.791,0,1,0,0,1.581H106.3a.791.791,0,1,0,0-1.581Z" transform="translate(-92.681 -186.6)"/></g></g><g transform="translate(15.381 37.254)"><g transform="translate(0 0)"><path d="M243.277,118.437H232.392a.791.791,0,0,0,0,1.581h10.885a.791.791,0,0,0,0-1.581Z" transform="translate(-231.601 -118.437)"/></g></g><g transform="translate(23.403 41.781)"><g transform="translate(0 0)"><path d="M356.059,186.6H353.2a.791.791,0,0,0,0,1.581h2.862a.791.791,0,0,0,0-1.581Z" transform="translate(-352.406 -186.6)"/></g></g><g transform="translate(6.155 46.308)"><g transform="translate(0 0)"><path d="M100.632,254.765h-7.16a.791.791,0,1,0,0,1.581h7.16a.791.791,0,1,0,0-1.581Z" transform="translate(-92.681 -254.765)"/></g></g><g transform="translate(17.517 46.308)"><g transform="translate(0 0)"><path d="M273.309,254.765H264.56a.791.791,0,0,0,0,1.581h8.749a.791.791,0,0,0,0-1.581Z" transform="translate(-263.769 -254.765)"/></g></g></g></svg>