<?xml version="1.0" encoding="UTF-8"?>
<svg xmlns="http://www.w3.org/2000/svg" xmlns:xlink="http://www.w3.org/1999/xlink" width="61pt" height="61pt" viewBox="0 0 61 61" version="1.1">
<g id="surface1">
<path style=" stroke:none;fill-rule:nonzero;fill:rgb(43.529412%,74.509804%,29.019608%);fill-opacity:1;" d="M 30.5 0 C 15.363281 0 3.050781 12.316406 3.050781 27.449219 C 3.050781 27.753906 3.050781 35.582031 3.050781 35.582031 C 3.050781 49.597656 15.363281 61 30.5 61 C 45.636719 61 57.949219 49.597656 57.949219 35.582031 C 57.949219 35.582031 57.949219 27.753906 57.949219 27.449219 C 57.949219 12.316406 45.636719 0 30.5 0 Z M 9.148438 44.734375 L 9.148438 48.246094 C 7.070312 45.289062 5.695312 41.875 5.246094 38.207031 C 6.25 40.550781 7.574219 42.730469 9.160156 44.6875 C 9.15625 44.703125 9.148438 44.71875 9.148438 44.734375 Z M 14.234375 53.535156 C 13.132812 52.6875 12.113281 51.757812 11.183594 50.757812 L 11.183594 46.929688 C 12.132812 47.875 13.152344 48.746094 14.234375 49.542969 Z M 19.316406 56.574219 C 18.230469 56.082031 17.1875 55.523438 16.195312 54.898438 L 16.265625 54.898438 L 16.265625 50.914062 C 17.242188 51.507812 18.265625 52.039062 19.316406 52.507812 Z M 24.398438 58.28125 C 23.355469 58.042969 22.339844 57.746094 21.351562 57.394531 L 21.351562 53.324219 C 22.339844 53.679688 23.359375 53.972656 24.398438 54.207031 Z M 29.484375 58.941406 C 28.449219 58.90625 27.433594 58.8125 26.433594 58.664062 L 26.433594 54.597656 C 27.433594 54.746094 28.453125 54.835938 29.484375 54.875 Z M 34.566406 58.664062 C 33.566406 58.8125 32.550781 58.90625 31.515625 58.941406 L 31.515625 54.875 C 32.546875 54.835938 33.566406 54.746094 34.566406 54.597656 Z M 39.648438 57.394531 C 38.660156 57.746094 37.644531 58.042969 36.601562 58.28125 L 36.601562 54.207031 C 37.640625 53.972656 38.660156 53.679688 39.648438 53.324219 Z M 41.683594 56.574219 L 41.683594 52.511719 C 42.734375 52.039062 43.757812 51.507812 44.734375 50.914062 L 44.734375 54.898438 L 44.804688 54.898438 C 43.8125 55.523438 42.769531 56.082031 41.683594 56.574219 Z M 49.816406 50.757812 C 48.886719 51.757812 47.867188 52.6875 46.765625 53.535156 L 46.765625 49.542969 C 47.847656 48.746094 48.867188 47.875 49.816406 46.929688 Z M 51.851562 48.246094 L 51.851562 44.734375 C 51.851562 44.71875 51.84375 44.703125 51.839844 44.6875 C 53.425781 42.730469 54.75 40.554688 55.753906 38.207031 C 55.304688 41.875 53.929688 45.289062 51.851562 48.246094 Z M 30.5 52.789062 C 16.527344 52.789062 5.160156 41.421875 5.160156 27.449219 C 5.160156 13.476562 16.527344 2.113281 30.5 2.113281 C 44.472656 2.113281 55.839844 13.480469 55.839844 27.449219 C 55.839844 41.421875 44.472656 52.789062 30.5 52.789062 Z M 30.5 52.789062 "/>
<path style=" stroke:none;fill-rule:nonzero;fill:rgb(43.529412%,74.509804%,29.019608%);fill-opacity:1;" d="M 30.5 6.335938 C 18.855469 6.335938 9.382812 15.808594 9.382812 27.449219 C 9.382812 39.09375 18.855469 48.566406 30.5 48.566406 C 42.144531 48.566406 51.617188 39.09375 51.617188 27.449219 C 51.617188 15.804688 42.144531 6.335938 30.5 6.335938 Z M 30.5 46.453125 C 20.019531 46.453125 11.496094 37.929688 11.496094 27.449219 C 11.496094 16.972656 20.019531 8.445312 30.5 8.445312 C 40.980469 8.445312 49.503906 16.972656 49.503906 27.449219 C 49.503906 37.925781 40.980469 46.453125 30.5 46.453125 Z M 30.5 46.453125 "/>
<path style=" stroke:none;fill-rule:nonzero;fill:rgb(43.529412%,74.509804%,29.019608%);fill-opacity:1;" d="M 31.515625 26.632812 L 31.515625 18.664062 C 35.144531 18.832031 36.425781 19.894531 37.074219 20.710938 C 37.421875 21.152344 38.0625 21.226562 38.503906 20.875 C 38.945312 20.527344 39.015625 19.886719 38.667969 19.449219 C 37.265625 17.679688 34.972656 16.78125 31.519531 16.636719 L 31.519531 15.164062 C 31.519531 14.601562 31.0625 14.148438 30.5 14.148438 C 29.941406 14.148438 29.484375 14.601562 29.484375 15.164062 L 29.484375 16.65625 C 24.980469 17.066406 22.589844 19.84375 22.550781 22.558594 C 22.511719 25.164062 24.652344 27.878906 29.484375 28.390625 L 29.484375 36.246094 C 26.371094 36.15625 25.304688 35.597656 23.859375 34.109375 C 23.46875 33.707031 22.824219 33.699219 22.421875 34.089844 C 22.019531 34.480469 22.011719 35.125 22.402344 35.527344 C 24.332031 37.515625 25.957031 38.179688 29.484375 38.28125 L 29.484375 39.734375 C 29.484375 40.296875 29.9375 40.75 30.5 40.75 C 31.0625 40.75 31.515625 40.296875 31.515625 39.734375 L 31.515625 38.238281 C 35.625 37.875 38.675781 35.761719 38.910156 32.992188 C 39.007812 31.886719 38.707031 28.273438 31.515625 26.632812 Z M 29.484375 26.332031 C 26.089844 25.902344 24.558594 24.214844 24.582031 22.589844 C 24.609375 20.839844 26.308594 19.070312 29.484375 18.71875 Z M 36.886719 32.820312 C 36.757812 34.304688 34.734375 35.855469 31.515625 36.1875 L 31.515625 28.71875 C 35.617188 29.753906 36.996094 31.527344 36.886719 32.820312 Z M 36.886719 32.820312 "/>
</g>
</svg>
