<svg xmlns="http://www.w3.org/2000/svg" width="56.357" height="57.664" viewBox="0 0 56.357 57.664">
  <g id="contract" transform="translate(-5.802)">
    <path id="Path_38259" data-name="Path 38259" d="M48.41,0H7.49A1.689,1.689,0,0,0,5.8,1.688V55.976A1.689,1.689,0,0,0,7.49,57.664H33.081a.845.845,0,0,0,0-1.689l-25.589,0,0-54.287,40.919,0,0,54.287H36.883a.845.845,0,0,0,0,1.689H48.411A1.689,1.689,0,0,0,50.1,55.977V1.688A1.69,1.69,0,0,0,48.41,0Z" transform="translate(0)" fill="#6fbe4a"/>
    <path id="Path_38260" data-name="Path 38260" d="M44.032,36.8a.845.845,0,0,0-.845.845V72.588a2.738,2.738,0,0,0,2.735,2.735h30.3a2.739,2.739,0,0,0,2.735-2.735V30.34a2.739,2.739,0,0,0-2.735-2.735h-30.3a2.738,2.738,0,0,0-2.735,2.735v3.331a.845.845,0,0,0,1.689,0V30.34a1.047,1.047,0,0,1,1.046-1.046h30.3a1.047,1.047,0,0,1,1.046,1.046V72.588a1.047,1.047,0,0,1-1.046,1.046h-30.3a1.047,1.047,0,0,1-1.046-1.046V37.644a.845.845,0,0,0-.845-.845Z" transform="translate(-33.175 -24.496)" fill="#6fbe4a"/>
    <path id="Path_38261" data-name="Path 38261" d="M419.314,126.548a.845.845,0,0,0,.845-.845V104.746a3.236,3.236,0,0,0-6.472,0v.888a2.954,2.954,0,0,0-2.8,2.946v6.873a.8.8,0,0,1-.8.8.845.845,0,0,0,0,1.69,2.494,2.494,0,0,0,2.492-2.491V108.58a1.262,1.262,0,0,1,1.112-1.251V137.48a2.155,2.155,0,0,0,2.152,2.152h.239V142.2a.845.845,0,1,0,1.689,0v-2.572h.239a2.155,2.155,0,0,0,2.152-2.152v-8a.845.845,0,0,0-1.689,0v8a.463.463,0,0,1-.463.463H415.84a.463.463,0,0,1-.463-.463V104.746a1.546,1.546,0,0,1,3.093,0V125.7A.845.845,0,0,0,419.314,126.548Z" transform="translate(-358 -90.077)" fill="#6fbe4a"/>
    <path id="Path_38262" data-name="Path 38262" d="M159.977,91.464a.845.845,0,1,0,0-1.689H149.563a.845.845,0,0,0,0,1.689Z" transform="translate(-126.82 -79.663)" fill="#6fbe4a"/>
    <path id="Path_38263" data-name="Path 38263" d="M88.313,184.919a.845.845,0,0,0,.845.845h24.021a.845.845,0,0,0,0-1.69H89.158A.845.845,0,0,0,88.313,184.919Z" transform="translate(-73.218 -163.343)" fill="#6fbe4a"/>
    <path id="Path_38264" data-name="Path 38264" d="M89.158,221.212h24.021a.845.845,0,0,0,0-1.69H89.158a.845.845,0,0,0,0,1.69Z" transform="translate(-73.218 -194.798)" fill="#6fbe4a"/>
    <path id="Path_38265" data-name="Path 38265" d="M89.158,256.662h24.021a.845.845,0,1,0,0-1.689H89.158a.845.845,0,0,0,0,1.689Z" transform="translate(-73.218 -226.257)" fill="#6fbe4a"/>
    <path id="Path_38266" data-name="Path 38266" d="M89.158,292.112h18.75a.845.845,0,0,0,0-1.69H89.158a.845.845,0,0,0,0,1.69Z" transform="translate(-73.218 -257.713)" fill="#6fbe4a"/>
  </g>
</svg>
