<svg xmlns="http://www.w3.org/2000/svg" width="53.849" height="59.936" viewBox="0 0 53.849 59.936">
  <g id="support_1_" data-name="support (1)" transform="translate(-26)">
    <g id="Group_35899" data-name="Group 35899" transform="translate(64.631 46.357)">
      <g id="Group_35898" data-name="Group 35898">
        <path id="Path_38225" data-name="Path 38225" d="M357.171,396a1.171,1.171,0,1,0,1.171,1.171A1.171,1.171,0,0,0,357.171,396Z" transform="translate(-356 -396)" fill="#fff"/>
      </g>
    </g>
    <g id="Group_35901" data-name="Group 35901" transform="translate(26)">
      <g id="Group_35900" data-name="Group 35900">
        <path id="Path_38226" data-name="Path 38226" d="M68.684,42.571,63.12,40.717l-2-3.995a12.821,12.821,0,0,0,3.47-6.783l.249-1.493h2.13a3.516,3.516,0,0,0,3.512-3.512V17.559a17.559,17.559,0,1,0-35.119,0v7.375a3.518,3.518,0,0,0,2.341,3.311v1.372a3.516,3.516,0,0,0,3.512,3.512h1.028a12.7,12.7,0,0,0,1.964,3.041c.166.191.339.375.516.555l-2,3.993-5.564,1.854C30.7,44.729,26,51.539,26,58.765a1.171,1.171,0,0,0,1.171,1.171H78.678a1.171,1.171,0,0,0,1.171-1.171C79.849,51.539,75.153,44.729,68.684,42.571Zm-.541-17.637A1.172,1.172,0,0,1,66.972,26.1H65.185c.3-2.3.5-4.758.576-7.174,0-.068,0-.134.006-.2h2.375ZM38.877,26.1a1.172,1.172,0,0,1-1.171-1.171v-6.2h2.376q.006.183.013.368s0,.008,0,.013h0c.082,2.35.278,4.739.568,6.993H38.877Zm2.341,4.683a1.172,1.172,0,0,1-1.171-1.171V28.446h.96l.249,1.494c.048.284.106.567.173.848Zm-1.169-14.4h-2.3a15.219,15.219,0,0,1,30.347,0H65.8A11.856,11.856,0,0,0,53.972,4.683h-2.1A11.857,11.857,0,0,0,40.049,16.389ZM51.877,7.024h2.1a9.519,9.519,0,0,1,9.488,9.53c0,.368,0,.689-.009.981,0,0,0,.008,0,.011l-1.464-.209a18.81,18.81,0,0,1-10.576-5.288,1.171,1.171,0,0,0-.828-.343,10.591,10.591,0,0,0-8.143,3.852A9.516,9.516,0,0,1,51.877,7.024Zm-8.02,23.764a66.911,66.911,0,0,1-1.4-11.361l1.576-2.1a8.24,8.24,0,0,1,6.093-3.265,21.174,21.174,0,0,0,11.535,5.594l1.723.246c-.115,2.445-.351,4.9-.688,7.155v0c-.107.725-.192,1.192-.408,2.5a9.943,9.943,0,0,1-7.057,8,9.21,9.21,0,0,1-10.34-4.422h2.386a3.517,3.517,0,0,0,3.311,2.341h2.341a3.512,3.512,0,0,0,0-7.024H50.583a3.513,3.513,0,0,0-3.313,2.341Zm6.628,9.133a11.742,11.742,0,0,0,4.354.1L52.77,42.206Zm.676,3.988-3.713,3.927a44.6,44.6,0,0,1-2.621-6.078l1.394-2.789Zm8.268-5.336,1.593,3.185A44.591,44.591,0,0,1,58.4,47.836l-3.974-3.974ZM49.413,31.958a1.171,1.171,0,0,1,1.171-1.171h2.341a1.171,1.171,0,0,1,0,2.341H50.583A1.172,1.172,0,0,1,49.413,31.958ZM28.388,57.595c.464-5.8,4.323-11.07,9.517-12.8l4.928-1.642a46.927,46.927,0,0,0,3.332,7.227l.007.012h0a46.939,46.939,0,0,0,3.2,4.893l1.44,2.312Zm24.536-1.043L51.337,54q-.027-.043-.057-.083a44.636,44.636,0,0,1-2.638-3.941l4.175-4.415,4.4,4.4a44.585,44.585,0,0,1-2.647,3.956C54.512,54,54.593,53.875,52.924,56.551Zm2.108,1.043,1.44-2.312A46.921,46.921,0,0,0,59.7,50.351l.017-.031,0,0a46.888,46.888,0,0,0,3.3-7.166l4.928,1.642c5.194,1.732,9.054,7,9.518,12.8H55.033Z" transform="translate(-26)" fill="#fff"/>
      </g>
    </g>
    <g id="Group_35903" data-name="Group 35903" transform="translate(68.744 48.591)">
      <g id="Group_35902" data-name="Group 35902">
        <path id="Path_38227" data-name="Path 38227" d="M396.338,419.355a11.7,11.7,0,0,0-3.314-4.023,1.171,1.171,0,0,0-1.428,1.856,9.349,9.349,0,0,1,2.647,3.214,1.171,1.171,0,0,0,2.095-1.046Z" transform="translate(-391.139 -415.088)" fill="#fff"/>
      </g>
    </g>
  </g>
</svg>
