<svg xmlns="http://www.w3.org/2000/svg" width="60.604" height="61.667" viewBox="0 0 60.604 61.667">
  <g id="Page-1" transform="translate(0.019)">
    <g id="_066---outgoing-call" data-name="066---outgoing-call" transform="translate(-0.019)">
      <path id="Shape" d="M20.434,27.319A3.2,3.2,0,0,0,20.9,25.1L18.621,10.7A3.182,3.182,0,0,0,15.463,8H5.472a3.215,3.215,0,0,0-3.055,2.232c-3.99,12.184.5,27.124,11.434,38.061,8.29,8.29,18.87,12.87,28.811,12.87a29.654,29.654,0,0,0,9.247-1.437,3.215,3.215,0,0,0,2.235-3.055V46.681a3.182,3.182,0,0,0-2.7-3.159l-14.4-2.275a3.207,3.207,0,0,0-2.217.463l-5.554,3.538a1.488,1.488,0,0,1-1.555.017A30.946,30.946,0,0,1,16.877,34.425a1.488,1.488,0,0,1,.016-1.554ZM15.046,35.5a33.079,33.079,0,0,0,11.6,11.6,3.606,3.606,0,0,0,3.771-.057L35.97,43.5a1.1,1.1,0,0,1,.744-.156l14.4,2.282a1.07,1.07,0,0,1,.907,1.063v9.991a1.1,1.1,0,0,1-.77,1.035c-11.43,3.735-25.52-.55-35.9-10.92S.694,22.324,4.437,10.894a1.1,1.1,0,0,1,1.035-.768h9.991a1.07,1.07,0,0,1,1.063.907l2.269,14.4a1.072,1.072,0,0,1-.155.744L15.1,31.726a3.6,3.6,0,0,0-.056,3.773Z" transform="translate(-0.981 0.503)" fill="#6fbe4a"/>
      <path id="Shape-2" data-name="Shape" d="M27,27.251A4.251,4.251,0,1,0,31.251,23,4.251,4.251,0,0,0,27,27.251Zm4.251-2.126a2.126,2.126,0,1,1-2.126,2.126A2.126,2.126,0,0,1,31.251,25.126Z" transform="translate(0.655 1.446)" fill="#6fbe4a"/>
      <path id="Shape-3" data-name="Shape" d="M31.063,6.377A22.346,22.346,0,0,1,53.383,28.7a1.063,1.063,0,0,0,1.063,1.063H58.7A1.063,1.063,0,0,0,59.76,28.7,28.729,28.729,0,0,0,31.063,0,1.063,1.063,0,0,0,30,1.063V5.314A1.063,1.063,0,0,0,31.063,6.377Zm1.063-4.23A26.607,26.607,0,0,1,57.613,27.635H55.488A24.481,24.481,0,0,0,32.126,4.274Z" transform="translate(0.844)" fill="#6fbe4a"/>
      <path id="Shape-4" data-name="Shape" d="M30,16.314a1.063,1.063,0,0,0,1.063,1.063A10.64,10.64,0,0,1,41.692,28.006a1.063,1.063,0,0,0,1.063,1.063h4.251a1.063,1.063,0,0,0,1.063-1.063A17.026,17.026,0,0,0,31.063,11,1.063,1.063,0,0,0,30,12.063Zm2.126-3.151a14.9,14.9,0,0,1,13.78,13.78H43.774A12.778,12.778,0,0,0,32.126,15.3Z" transform="translate(0.844 0.692)" fill="#6fbe4a"/>
    </g>
  </g>
</svg>
