<svg xmlns="http://www.w3.org/2000/svg" width="58.607" height="58.664" viewBox="0 0 58.607 58.664">
  <g id="directory" transform="translate(-0.25)">
    <path id="Path_38245" data-name="Path 38245" d="M1.97,303.054v-8.349H.25v8.349a4.306,4.306,0,0,0,4.3,4.3h9.978v-1.72H4.551A2.583,2.583,0,0,1,1.97,303.054Z" transform="translate(0 -260.905)" fill="#6fbe4a"/>
    <path id="Path_38246" data-name="Path 38246" d="M399.309,167.547a2.583,2.583,0,0,1-2.581,2.581H386.75v1.72h9.978a4.306,4.306,0,0,0,4.3-4.3v-25.9h-1.72Z" transform="translate(-342.172 -125.398)" fill="#6fbe4a"/>
    <path id="Path_38247" data-name="Path 38247" d="M155.063,436.381l-1.289-3.094-1.588.662,1.157,2.776v1.231H151.25v4.3h1.72v-2.581h11.756v-1.72h-9.663Z" transform="translate(-133.682 -383.593)" fill="#6fbe4a"/>
    <path id="Path_38248" data-name="Path 38248" d="M288.545,255.483h-1.72v9.053h4.9v7.133l-4.516,7.226v1.65H283.75v1.72H289.2v2.581h1.72v-4.3h-1.993v-1.157l4.516-7.225v-9.346h-4.9Z" transform="translate(-250.985 -226.182)" fill="#6fbe4a"/>
    <path id="Path_38249" data-name="Path 38249" d="M162.439,171.681v4.632h1.72v-4.632a3.681,3.681,0,0,0-7.362,0v6.841h-4.515v1.648h-4.517v1.9H143.25v12.568l1.192,2.861,1.588-.662-1.06-2.544v-10.5h2.795v2.689h1.72V181.89h2.8v4.591H154v-6.239H156.8v6.239h1.72v-14.8a1.961,1.961,0,0,1,3.921,0Z" transform="translate(-126.599 -148.732)" fill="#6fbe4a"/>
    <path id="Path_38250" data-name="Path 38250" d="M54.556,1.835H38.86v1.72h15.7a2.583,2.583,0,0,1,2.581,2.581V7.744a4.278,4.278,0,0,0-2.581-.863H29.906a4.892,4.892,0,0,1-3.045-1.068L24.039,3.555h13.1V1.835H21.889l-.487-.39A6.618,6.618,0,0,0,17.282,0H4.551A4.306,4.306,0,0,0,.25,4.3V32.079H1.97V4.3A2.583,2.583,0,0,1,4.551,1.72H17.282a4.891,4.891,0,0,1,3.045,1.068l5.46,4.368A6.619,6.619,0,0,0,29.906,8.6H54.556a2.583,2.583,0,0,1,2.581,2.581v3.342h1.72V6.136a4.306,4.306,0,0,0-4.3-4.3Z" transform="translate(0)" fill="#6fbe4a"/>
    <path id="Path_38251" data-name="Path 38251" d="M104.75,30h4.588v1.72H104.75Z" transform="translate(-92.515 -26.559)" fill="#6fbe4a"/>
    <path id="Path_38252" data-name="Path 38252" d="M74.75,30h1.72v1.72H74.75Z" transform="translate(-65.956 -26.559)" fill="#6fbe4a"/>
    <path id="Path_38253" data-name="Path 38253" d="M44.75,30h1.72v1.72H44.75Z" transform="translate(-39.396 -26.559)" fill="#6fbe4a"/>
    <path id="Path_38254" data-name="Path 38254" d="M285.25,122h1.72v1.72h-1.72Z" transform="translate(-252.313 -108.008)" fill="#6fbe4a"/>
    <path id="Path_38255" data-name="Path 38255" d="M0,0H1.72V1.72H0Z" transform="translate(26.899 17.205) rotate(-45)" fill="#6fbe4a"/>
    <path id="Path_38256" data-name="Path 38256" d="M215.25,192h1.72v1.72h-1.72Z" transform="translate(-190.342 -169.979)" fill="#6fbe4a"/>
    <path id="Path_38257" data-name="Path 38257" d="M0,0H1.72V1.72H0Z" transform="translate(38.251 17.204) rotate(-45)" fill="#6fbe4a"/>
    <path id="Path_38258" data-name="Path 38258" d="M355.25,192h1.72v1.72h-1.72Z" transform="translate(-314.285 -169.979)" fill="#6fbe4a"/>
  </g>
</svg>
