<svg xmlns="http://www.w3.org/2000/svg" width="39.998" height="40" viewBox="0 0 39.998 40"><defs><style>.a{fill:#6fbe4a;}.b{fill:#fafafa;}</style></defs><g transform="translate(-0.01 0)"><path class="a" d="M1.848,20,.093,15.424A1.251,1.251,0,0,1,.473,14l3.8-3.085.77-4.842a1.25,1.25,0,0,1,1.04-1.037l4.842-.77L14.012.462a1.252,1.252,0,0,1,1.417-.38l4.58,1.757L24.586.085A1.247,1.247,0,0,1,26,.465l3.085,3.807,4.842.77a1.252,1.252,0,0,1,1.037,1.037l.77,4.842,3.807,3.085a1.251,1.251,0,0,1,.38,1.417L38.17,20l1.755,4.577A1.247,1.247,0,0,1,39.545,26l-3.807,3.082-.77,4.842a1.25,1.25,0,0,1-1.037,1.04l-4.842.77L26,39.535a1.244,1.244,0,0,1-1.42.38l-4.575-1.752-4.577,1.755a1.251,1.251,0,0,1-1.42-.382l-3.082-3.8-4.842-.77a1.252,1.252,0,0,1-1.04-1.04l-.77-4.842L.473,26a1.248,1.248,0,0,1-.38-1.417Z" transform="translate(0 0)"/><g transform="translate(12.507 10)"><path class="b" d="M163.772,135.534a3.75,3.75,0,1,0-3.75-3.75A3.754,3.754,0,0,0,163.772,135.534Zm0-5a1.25,1.25,0,1,1-1.25,1.25A1.25,1.25,0,0,1,163.772,130.535Z" transform="translate(-152.52 -128.034)"/><path class="b" d="M259.772,295.534a3.75,3.75,0,1,0-3.75-3.75A3.754,3.754,0,0,0,259.772,295.534Zm0-5a1.25,1.25,0,1,1-1.25,1.25A1.254,1.254,0,0,1,259.772,290.535Z" transform="translate(-256.019 -275.535)"/><path class="b" d="M173.788,148.017a1.25,1.25,0,0,0,1.015-1.977l-12.5-17.5a1.25,1.25,0,0,0-2.035,1.452l12.5,17.5A1.255,1.255,0,0,0,173.788,148.017Z" transform="translate(-160.036 -128.017)"/></g></g></svg>