<svg xmlns="http://www.w3.org/2000/svg" width="511.985" height="469.341" viewBox="0 0 511.985 469.341">
  <g id="discount-voucher" transform="translate(0 -21.321)">
    <g id="Group_27" data-name="Group 27">
      <g id="Group_26" data-name="Group 26">
        <path id="Path_39" data-name="Path 39" d="M501.317,277.329a10.661,10.661,0,0,0,10.667-10.667V213.329a42.709,42.709,0,0,0-42.667-42.667H389.029a51.629,51.629,0,0,1-5.046-21.333,53.239,53.239,0,0,1,27.979-46.594,10.693,10.693,0,0,0,4.146-14.667l-25.99-45.4a42.215,42.215,0,0,0-57.917-15.6L21.14,208.162a42.832,42.832,0,0,0-15.5,58.167l26.875,46.979a10.673,10.673,0,0,0,14.771,3.843,52.419,52.419,0,0,1,27.365-7.823,53.093,53.093,0,0,1,50.548,37.53A53.227,53.227,0,0,1,74.651,384a10.661,10.661,0,0,0-10.667,10.667V448a42.709,42.709,0,0,0,42.667,42.667H469.318A42.709,42.709,0,0,0,511.985,448V394.662A10.661,10.661,0,0,0,501.318,384a53.333,53.333,0,0,1,0-106.666ZM342.942,45.506a20.6,20.6,0,0,1,15.844-2.135A20.915,20.915,0,0,1,371.6,53.277L392.568,89.9a74.376,74.376,0,0,0-29.917,59.427,73.35,73.35,0,0,0,3.3,21.333H127.955ZM74.65,288a73.214,73.214,0,0,0-28.656,5.917L24.161,255.736A21.442,21.442,0,0,1,31.869,226.6l32.7-19.035a42.151,42.151,0,0,0-.583,5.764v53.333A10.661,10.661,0,0,0,74.651,277.33a53.163,53.163,0,0,1,45.883,26.609A74.083,74.083,0,0,0,74.65,288Zm352,42.666a74.779,74.779,0,0,0,64,73.906v43.427a21.361,21.361,0,0,1-21.333,21.333h-256V450.661a10.667,10.667,0,0,0-21.334,0v18.667H106.65a21.361,21.361,0,0,1-21.333-21.333V404.568a74.673,74.673,0,0,0,0-147.812V213.329A21.361,21.361,0,0,1,106.65,192h85.333v24a10.667,10.667,0,0,0,21.334,0V192h256a21.361,21.361,0,0,1,21.333,21.333v43.427A74.779,74.779,0,0,0,426.65,330.662Z" fill="#6fbe4a"/>
        <path id="Path_40" data-name="Path 40" d="M202.65,269.329A10.661,10.661,0,0,0,191.983,280v21.333a10.667,10.667,0,0,0,21.334,0V280A10.661,10.661,0,0,0,202.65,269.329Z" fill="#6fbe4a"/>
        <path id="Path_41" data-name="Path 41" d="M202.65,354.662a10.661,10.661,0,0,0-10.667,10.667v21.333a10.667,10.667,0,0,0,21.334,0V365.329A10.661,10.661,0,0,0,202.65,354.662Z" fill="#6fbe4a"/>
        <path id="Path_42" data-name="Path 42" d="M401.046,236.8a10.687,10.687,0,0,0-14.927,2.135l-128,170.667a10.662,10.662,0,1,0,17.062,12.791l128-170.667A10.646,10.646,0,0,0,401.046,236.8Z" fill="#6fbe4a"/>
        <path id="Path_43" data-name="Path 43" d="M287.984,320c17.948,0,32-18.74,32-42.667s-14.052-42.667-32-42.667-32,18.74-32,42.667S270.036,320,287.984,320Zm0-64c4.354,0,10.667,8.313,10.667,21.333s-6.313,21.333-10.667,21.333-10.667-8.313-10.667-21.333S283.63,256,287.984,256Z" fill="#6fbe4a"/>
        <path id="Path_44" data-name="Path 44" d="M373.317,341.329c-17.948,0-32,18.74-32,42.667s14.052,42.667,32,42.667,32-18.74,32-42.667S391.265,341.329,373.317,341.329Zm0,64c-4.354,0-10.667-8.313-10.667-21.333s6.313-21.333,10.667-21.333,10.667,8.313,10.667,21.333S377.671,405.329,373.317,405.329Z" fill="#6fbe4a"/>
      </g>
    </g>
  </g>
</svg>
