<svg xmlns="http://www.w3.org/2000/svg" width="23.39" height="17.8" viewBox="0 0 23.39 17.8">
  <g id="Group_35872" data-name="Group 35872" transform="translate(-911 -896)">
    <g id="envelope" transform="translate(911 838.25)">
      <g id="Group_35869" data-name="Group 35869" transform="translate(0 57.75)">
        <path id="Path_38196" data-name="Path 38196" d="M20.534,57.75H2.86A2.863,2.863,0,0,0,0,60.61V72.69a2.863,2.863,0,0,0,2.86,2.86H20.53a2.863,2.863,0,0,0,2.86-2.86V60.615A2.86,2.86,0,0,0,20.534,57.75Zm1.554,14.94a1.555,1.555,0,0,1-1.554,1.554H2.86A1.555,1.555,0,0,1,1.307,72.69V60.615A1.555,1.555,0,0,1,2.86,59.062H20.53a1.555,1.555,0,0,1,1.554,1.554V72.69Z" transform="translate(0 -57.75)" fill="#6fbe4a"/>
        <path id="Path_38197" data-name="Path 38197" d="M67.805,115.177l5.72-5.13a.655.655,0,1,0-.876-.973l-7.889,7.08-1.539-1.374s-.01-.01-.01-.015a.968.968,0,0,0-.106-.092l-6.262-5.6a.655.655,0,0,0-.871.978l5.788,5.174L56,120.617a.656.656,0,0,0-.029.924.668.668,0,0,0,.479.208.655.655,0,0,0,.445-.174l5.851-5.474,1.587,1.418a.652.652,0,0,0,.871,0l1.631-1.462,5.817,5.527a.655.655,0,0,0,.924-.024.656.656,0,0,0-.024-.924Z" transform="translate(-53.054 -106.427)" fill="#6fbe4a"/>
      </g>
    </g>
    <g id="envelope-2" data-name="envelope" transform="translate(911 838.25)">
      <g id="Group_35869-2" data-name="Group 35869" transform="translate(0 57.75)">
        <path id="Path_38196-2" data-name="Path 38196" d="M20.534,57.75H2.86A2.863,2.863,0,0,0,0,60.61V72.69a2.863,2.863,0,0,0,2.86,2.86H20.53a2.863,2.863,0,0,0,2.86-2.86V60.615A2.86,2.86,0,0,0,20.534,57.75Zm1.554,14.94a1.555,1.555,0,0,1-1.554,1.554H2.86A1.555,1.555,0,0,1,1.307,72.69V60.615A1.555,1.555,0,0,1,2.86,59.062H20.53a1.555,1.555,0,0,1,1.554,1.554V72.69Z" transform="translate(0 -57.75)" fill="#6fbe4a"/>
        <path id="Path_38197-2" data-name="Path 38197" d="M67.805,115.177l5.72-5.13a.655.655,0,1,0-.876-.973l-7.889,7.08-1.539-1.374s-.01-.01-.01-.015a.968.968,0,0,0-.106-.092l-6.262-5.6a.655.655,0,0,0-.871.978l5.788,5.174L56,120.617a.656.656,0,0,0-.029.924.668.668,0,0,0,.479.208.655.655,0,0,0,.445-.174l5.851-5.474,1.587,1.418a.652.652,0,0,0,.871,0l1.631-1.462,5.817,5.527a.655.655,0,0,0,.924-.024.656.656,0,0,0-.024-.924Z" transform="translate(-53.054 -106.427)" fill="#6fbe4a"/>
      </g>
    </g>
  </g>
</svg>
