<svg xmlns="http://www.w3.org/2000/svg" width="450.922" height="512" viewBox="0 0 450.922 512">
  <g id="surface1" transform="translate(-0.001)">
    <path id="Path_45" data-name="Path 45" d="M444.809,377.871a60.613,60.613,0,0,0-49.641-51.441V213.094c0-46.754-17.785-90.383-49.637-122.953a166.359,166.359,0,0,0-62.258-40.262,58.093,58.093,0,0,0-115.019,0A168.723,168.723,0,0,0,105.879,89.9,171.282,171.282,0,0,0,56.121,210.809V326.551A60.47,60.47,0,0,0,6.484,377.992L.113,426.906A11.385,11.385,0,0,0,3,436.16a11.824,11.824,0,0,0,9.137,3.848H142.777a83.491,83.491,0,0,0,165.379.121H438.8a11.564,11.564,0,0,0,9.012-3.848,11.729,11.729,0,0,0,3.007-9.375Zm-73.676-52.16H80.277v-43.27H371.133ZM225.7,24.039a33.778,33.778,0,0,1,30.168,18.508,165.9,165.9,0,0,0-60.332,0A33.776,33.776,0,0,1,225.7,24.039Zm-102.64,82.688a143.936,143.936,0,0,1,205.281.242c27.4,28,42.789,65.742,42.789,106.125V258.4H80.277V210.809A147.344,147.344,0,0,1,123.063,106.727ZM267.77,470.414a59.473,59.473,0,0,1-84.129,0,56.627,56.627,0,0,1-16.227-30.406h116.7A57.239,57.239,0,0,1,267.77,470.414ZM25.953,415.852l4.688-34.977a36.01,36.01,0,0,1,35.7-31.129H384.953a35.829,35.829,0,0,1,35.7,31.129l4.688,34.977Zm0,0" fill="#6fbe4a"/>
  </g>
</svg>
