<svg id="fax" xmlns="http://www.w3.org/2000/svg" width="59.289" height="59.289" viewBox="0 0 59.289 59.289">
  <path id="Path_38230" data-name="Path 38230" d="M49.941,31.882A4.941,4.941,0,1,0,45,26.941,4.946,4.946,0,0,0,49.941,31.882Zm0-7.905a2.964,2.964,0,1,1-2.964,2.964A2.968,2.968,0,0,1,49.941,23.976Z" transform="translate(-0.533 -0.261)" fill="#6fbe4a"/>
  <path id="Path_38231" data-name="Path 38231" d="M17.988,8.976H35.775a.988.988,0,1,0,0-1.976H17.988a.988.988,0,1,0,0,1.976Z" transform="translate(-0.201 -0.083)" fill="#6fbe4a"/>
  <path id="Path_38232" data-name="Path 38232" d="M41.7,12H17.988a.988.988,0,1,0,0,1.976H41.7A.988.988,0,1,0,41.7,12Z" transform="translate(-0.201 -0.142)" fill="#6fbe4a"/>
  <path id="Path_38233" data-name="Path 38233" d="M41.7,43H17.988a.988.988,0,0,0,0,1.976H41.7A.988.988,0,0,0,41.7,43Z" transform="translate(-0.201 -0.51)" fill="#6fbe4a"/>
  <path id="Path_38234" data-name="Path 38234" d="M41.7,48H17.988a.988.988,0,0,0,0,1.976H41.7A.988.988,0,1,0,41.7,48Z" transform="translate(-0.201 -0.569)" fill="#6fbe4a"/>
  <path id="Path_38235" data-name="Path 38235" d="M50.4,16.8V0H8.893V16.8H0V50.4H5.929V53.36H8.893v5.929H50.4V53.36H53.36V50.4h5.929V16.8ZM10.87,1.976h37.55V16.8H10.87Zm-1.976,16.8H57.313v15.81H1.976V18.775ZM7.905,51.384V44.467a.988.988,0,1,0-1.976,0v3.953H1.976V36.562H8.893V51.384Zm40.514,5.929H10.87V36.562h37.55V57.313Zm4.941-8.893V44.467a.988.988,0,1,0-1.976,0v6.917H50.4V36.562h6.917V48.419Z" fill="#6fbe4a"/>
  <path id="Path_38236" data-name="Path 38236" d="M5.988,23.976H8.953a.988.988,0,1,0,0-1.976H5.988a.988.988,0,1,0,0,1.976Z" transform="translate(-0.059 -0.261)" fill="#6fbe4a"/>
  <path id="Path_38237" data-name="Path 38237" d="M5.988,27.976H8.953a.988.988,0,1,0,0-1.976H5.988a.988.988,0,1,0,0,1.976Z" transform="translate(-0.059 -0.308)" fill="#6fbe4a"/>
  <path id="Path_38238" data-name="Path 38238" d="M5.988,31.976H8.953a.988.988,0,1,0,0-1.976H5.988a.988.988,0,1,0,0,1.976Z" transform="translate(-0.059 -0.355)" fill="#6fbe4a"/>
  <path id="Path_38239" data-name="Path 38239" d="M12.988,23.976h2.964a.988.988,0,1,0,0-1.976H12.988a.988.988,0,1,0,0,1.976Z" transform="translate(-0.142 -0.261)" fill="#6fbe4a"/>
  <path id="Path_38240" data-name="Path 38240" d="M12.988,27.976h2.964a.988.988,0,1,0,0-1.976H12.988a.988.988,0,1,0,0,1.976Z" transform="translate(-0.142 -0.308)" fill="#6fbe4a"/>
  <path id="Path_38241" data-name="Path 38241" d="M12.988,31.976h2.964a.988.988,0,1,0,0-1.976H12.988a.988.988,0,1,0,0,1.976Z" transform="translate(-0.142 -0.355)" fill="#6fbe4a"/>
  <path id="Path_38242" data-name="Path 38242" d="M19.988,23.976h2.964a.988.988,0,0,0,0-1.976H19.988a.988.988,0,0,0,0,1.976Z" transform="translate(-0.225 -0.261)" fill="#6fbe4a"/>
  <path id="Path_38243" data-name="Path 38243" d="M19.988,27.976h2.964a.988.988,0,0,0,0-1.976H19.988a.988.988,0,0,0,0,1.976Z" transform="translate(-0.225 -0.308)" fill="#6fbe4a"/>
  <path id="Path_38244" data-name="Path 38244" d="M19.988,31.976h2.964a.988.988,0,0,0,0-1.976H19.988a.988.988,0,0,0,0,1.976Z" transform="translate(-0.225 -0.355)" fill="#6fbe4a"/>
</svg>
