<svg xmlns="http://www.w3.org/2000/svg" width="156.384" height="205.695" viewBox="0 0 156.384 205.695"><defs><style>.a{fill:#fff;}</style></defs><g transform="translate(-544.98 -5146.94)"><path class="a" d="M6.582.722A4.222,4.222,0,0,0,0,4.222H0v0a4.222,4.222,0,1,0,8.444,0v0h0A4.217,4.217,0,0,0,6.582.722Z" transform="translate(652.051 5146.94) rotate(90)"/><path class="a" d="M4.222,0A4.222,4.222,0,1,0,8.444,4.222,4.223,4.223,0,0,0,4.222,0Z" transform="translate(627.395 5146.94) rotate(90)"/><path class="a" d="M4.222,0A4.222,4.222,0,1,0,8.444,4.222,4.223,4.223,0,0,0,4.222,0Z" transform="translate(602.738 5146.94) rotate(90)"/><path class="a" d="M4.222,0A4.222,4.222,0,1,0,8.444,4.222,4.221,4.221,0,0,0,4.222,0Z" transform="translate(578.08 5146.94) rotate(90)"/><path class="a" d="M4.222,0A4.223,4.223,0,1,0,8.444,4.224,4.223,4.223,0,0,0,4.222,0Z" transform="translate(553.426 5146.94) rotate(90)"/><path class="a" d="M4.222,0A4.222,4.222,0,1,0,8.444,4.222,4.223,4.223,0,0,0,4.222,0Z" transform="translate(701.363 5146.94) rotate(90)"/><path class="a" d="M4.222,0A4.222,4.222,0,1,0,8.444,4.222,4.221,4.221,0,0,0,4.222,0Z" transform="translate(676.707 5146.94) rotate(90)"/><path class="a" d="M7.722,1.862A4.232,4.232,0,0,0,6.582.722,4.222,4.222,0,0,0,0,4.222H0v0a4.222,4.222,0,0,0,8.444,0v0h0A4.2,4.2,0,0,0,7.722,1.862Z" transform="translate(652.051 5171.597) rotate(90)"/><path class="a" d="M6.582.722A4.222,4.222,0,0,0,0,4.222H0v0a4.222,4.222,0,0,0,8.444,0v0h0A4.216,4.216,0,0,0,6.582.722Z" transform="translate(652.051 5196.254) rotate(90)"/><path class="a" d="M6.583.722A4.222,4.222,0,0,0,0,4.222H0v0a4.222,4.222,0,1,0,8.444,0v0h0A4.217,4.217,0,0,0,6.583.722Z" transform="translate(652.051 5220.909) rotate(90)"/><path class="a" d="M6.582.722A4.222,4.222,0,0,0,0,4.222H0v0a4.222,4.222,0,1,0,8.444,0v0h0A4.216,4.216,0,0,0,6.582.722Z" transform="translate(652.051 5245.565) rotate(90)"/><path class="a" d="M6.583.722A4.222,4.222,0,0,0,0,4.222H0v0a4.222,4.222,0,1,0,8.444,0v0h0A4.217,4.217,0,0,0,6.583.722Z" transform="translate(652.051 5270.223) rotate(90)"/><path class="a" d="M6.582.722A4.222,4.222,0,0,0,0,4.222H0v0a4.222,4.222,0,0,0,8.444,0v0h0A4.216,4.216,0,0,0,6.582.722Z" transform="translate(652.051 5294.88) rotate(90)"/><path class="a" d="M6.585.722A4.223,4.223,0,0,0,0,4.222H0v0a4.223,4.223,0,0,0,8.446,0v0h0A4.223,4.223,0,0,0,6.585.722Z" transform="translate(652.051 5319.534) rotate(90)"/><path class="a" d="M6.582.722A4.222,4.222,0,0,0,0,4.222H0v0a4.222,4.222,0,1,0,8.444,0v0h0A4.217,4.217,0,0,0,6.582.722Z" transform="translate(652.051 5344.191) rotate(90)"/><path class="a" d="M5.072.087A4.172,4.172,0,0,0,4.222,0a4.222,4.222,0,0,0,0,8.444,4.333,4.333,0,0,0,.85-.084,4.223,4.223,0,0,0,0-8.273Z" transform="translate(627.395 5171.597) rotate(90)"/><path class="a" d="M4.222,0A4.222,4.222,0,1,0,8.444,4.222,4.221,4.221,0,0,0,4.222,0Z" transform="translate(627.395 5196.254) rotate(90)"/><path class="a" d="M4.222,0A4.222,4.222,0,1,0,8.444,4.222,4.223,4.223,0,0,0,4.222,0Z" transform="translate(627.395 5220.909) rotate(90)"/><path class="a" d="M4.222,0A4.222,4.222,0,1,0,8.444,4.222,4.223,4.223,0,0,0,4.222,0Z" transform="translate(627.395 5245.565) rotate(90)"/><path class="a" d="M4.222,0A4.222,4.222,0,1,0,8.444,4.222,4.223,4.223,0,0,0,4.222,0Z" transform="translate(627.395 5270.223) rotate(90)"/><path class="a" d="M4.222,0A4.222,4.222,0,1,0,8.444,4.222,4.222,4.222,0,0,0,4.222,0Z" transform="translate(627.395 5294.88) rotate(90)"/><path class="a" d="M4.224,0A4.222,4.222,0,1,0,8.446,4.222,4.224,4.224,0,0,0,4.224,0Z" transform="translate(627.395 5319.534) rotate(90)"/><path class="a" d="M4.222,0A4.222,4.222,0,1,0,8.444,4.222,4.223,4.223,0,0,0,4.222,0Z" transform="translate(627.395 5344.191) rotate(90)"/><path class="a" d="M5.072.087A4.172,4.172,0,0,0,4.222,0a4.222,4.222,0,0,0,0,8.444,4.172,4.172,0,0,0,.85-.087,4.222,4.222,0,0,0,0-8.271Z" transform="translate(602.738 5171.597) rotate(90)"/><path class="a" d="M4.222,0A4.222,4.222,0,1,0,8.444,4.222,4.221,4.221,0,0,0,4.222,0Z" transform="translate(602.738 5196.254) rotate(90)"/><path class="a" d="M4.222,0A4.222,4.222,0,1,0,8.444,4.222,4.223,4.223,0,0,0,4.222,0Z" transform="translate(602.738 5220.909) rotate(90)"/><path class="a" d="M4.222,0A4.222,4.222,0,1,0,8.444,4.222,4.223,4.223,0,0,0,4.222,0Z" transform="translate(602.738 5245.565) rotate(90)"/><path class="a" d="M4.222,0A4.222,4.222,0,1,0,8.444,4.222,4.223,4.223,0,0,0,4.222,0Z" transform="translate(602.738 5270.223) rotate(90)"/><path class="a" d="M4.222,0A4.222,4.222,0,1,0,8.444,4.222,4.222,4.222,0,0,0,4.222,0Z" transform="translate(602.738 5294.88) rotate(90)"/><path class="a" d="M4.224,0A4.222,4.222,0,1,0,8.446,4.222,4.224,4.224,0,0,0,4.224,0Z" transform="translate(602.738 5319.534) rotate(90)"/><path class="a" d="M4.222,0A4.222,4.222,0,1,0,8.444,4.222,4.223,4.223,0,0,0,4.222,0Z" transform="translate(602.738 5344.191) rotate(90)"/><path class="a" d="M5.072.084A4.329,4.329,0,0,0,4.222,0a4.222,4.222,0,0,0,0,8.444,4.172,4.172,0,0,0,.85-.087,4.224,4.224,0,0,0,0-8.273Z" transform="translate(578.08 5171.597) rotate(90)"/><path class="a" d="M4.222,0A4.222,4.222,0,1,0,8.444,4.222,4.22,4.22,0,0,0,4.222,0Z" transform="translate(578.08 5196.254) rotate(90)"/><path class="a" d="M4.222,0A4.222,4.222,0,1,0,8.444,4.222,4.222,4.222,0,0,0,4.222,0Z" transform="translate(578.08 5220.909) rotate(90)"/><path class="a" d="M4.222,0A4.222,4.222,0,1,0,8.444,4.222,4.222,4.222,0,0,0,4.222,0Z" transform="translate(578.08 5245.565) rotate(90)"/><path class="a" d="M4.222,0A4.222,4.222,0,1,0,8.444,4.222,4.222,4.222,0,0,0,4.222,0Z" transform="translate(578.08 5270.223) rotate(90)"/><path class="a" d="M4.222,0A4.222,4.222,0,1,0,8.444,4.222,4.22,4.22,0,0,0,4.222,0Z" transform="translate(578.08 5294.88) rotate(90)"/><path class="a" d="M4.224,0A4.222,4.222,0,1,0,8.446,4.222,4.222,4.222,0,0,0,4.224,0Z" transform="translate(578.08 5319.534) rotate(90)"/><path class="a" d="M4.222,0A4.222,4.222,0,1,0,8.444,4.222,4.221,4.221,0,0,0,4.222,0Z" transform="translate(578.08 5344.191) rotate(90)"/><path class="a" d="M5.072.087A4.17,4.17,0,0,0,4.222,0a4.223,4.223,0,0,0,0,8.446,4.168,4.168,0,0,0,.85-.087,4.223,4.223,0,0,0,0-8.273Z" transform="translate(553.426 5171.597) rotate(90)"/><path class="a" d="M4.222,0A4.223,4.223,0,1,0,8.444,4.224,4.222,4.222,0,0,0,4.222,0Z" transform="translate(553.426 5196.254) rotate(90)"/><path class="a" d="M4.222,0A4.223,4.223,0,1,0,8.444,4.224,4.224,4.224,0,0,0,4.222,0Z" transform="translate(553.426 5220.909) rotate(90)"/><path class="a" d="M4.222,0A4.223,4.223,0,1,0,8.444,4.224,4.224,4.224,0,0,0,4.222,0Z" transform="translate(553.426 5245.565) rotate(90)"/><path class="a" d="M4.222,0A4.223,4.223,0,1,0,8.444,4.224,4.224,4.224,0,0,0,4.222,0Z" transform="translate(553.426 5270.223) rotate(90)"/><path class="a" d="M4.222,0A4.223,4.223,0,1,0,8.444,4.224,4.222,4.222,0,0,0,4.222,0Z" transform="translate(553.426 5294.88) rotate(90)"/><path class="a" d="M4.224,0A4.223,4.223,0,1,0,8.446,4.224,4.224,4.224,0,0,0,4.224,0Z" transform="translate(553.426 5319.534) rotate(90)"/><path class="a" d="M4.222,0A4.223,4.223,0,1,0,8.444,4.224,4.223,4.223,0,0,0,4.222,0Z" transform="translate(553.426 5344.191) rotate(90)"/><path class="a" d="M5.072.087A4.168,4.168,0,0,0,4.222,0a4.222,4.222,0,0,0,0,8.444,4.172,4.172,0,0,0,.85-.087,4.222,4.222,0,0,0,0-8.271Z" transform="translate(701.363 5171.597) rotate(90)"/><path class="a" d="M4.222,0A4.222,4.222,0,1,0,8.444,4.222,4.221,4.221,0,0,0,4.222,0Z" transform="translate(701.363 5196.254) rotate(90)"/><path class="a" d="M4.222,0A4.222,4.222,0,1,0,8.444,4.222,4.223,4.223,0,0,0,4.222,0Z" transform="translate(701.363 5220.909) rotate(90)"/><path class="a" d="M4.222,0A4.222,4.222,0,1,0,8.444,4.222,4.223,4.223,0,0,0,4.222,0Z" transform="translate(701.363 5245.565) rotate(90)"/><path class="a" d="M4.222,0A4.222,4.222,0,1,0,8.444,4.222,4.223,4.223,0,0,0,4.222,0Z" transform="translate(701.363 5270.223) rotate(90)"/><path class="a" d="M4.222,0A4.222,4.222,0,1,0,8.444,4.222,4.222,4.222,0,0,0,4.222,0Z" transform="translate(701.363 5294.88) rotate(90)"/><path class="a" d="M4.224,0A4.222,4.222,0,1,0,8.446,4.222,4.224,4.224,0,0,0,4.224,0Z" transform="translate(701.363 5319.534) rotate(90)"/><path class="a" d="M4.222,0A4.222,4.222,0,1,0,8.444,4.222,4.223,4.223,0,0,0,4.222,0Z" transform="translate(701.363 5344.191) rotate(90)"/><path class="a" d="M5.072.084A4.341,4.341,0,0,0,4.222,0a4.222,4.222,0,0,0,0,8.444,4.17,4.17,0,0,0,.85-.087,4.224,4.224,0,0,0,0-8.273Z" transform="translate(676.707 5171.597) rotate(90)"/><path class="a" d="M4.222,0A4.222,4.222,0,1,0,8.444,4.222,4.22,4.22,0,0,0,4.222,0Z" transform="translate(676.707 5196.254) rotate(90)"/><path class="a" d="M4.222,0A4.222,4.222,0,1,0,8.444,4.222,4.222,4.222,0,0,0,4.222,0Z" transform="translate(676.707 5220.909) rotate(90)"/><path class="a" d="M4.222,0A4.222,4.222,0,1,0,8.444,4.222,4.222,4.222,0,0,0,4.222,0Z" transform="translate(676.707 5245.565) rotate(90)"/><path class="a" d="M4.222,0A4.222,4.222,0,1,0,8.444,4.222,4.222,4.222,0,0,0,4.222,0Z" transform="translate(676.707 5270.223) rotate(90)"/><path class="a" d="M4.222,0A4.222,4.222,0,1,0,8.444,4.222,4.22,4.22,0,0,0,4.222,0Z" transform="translate(676.707 5294.88) rotate(90)"/><path class="a" d="M4.224,0A4.222,4.222,0,1,0,8.446,4.222,4.222,4.222,0,0,0,4.224,0Z" transform="translate(676.707 5319.534) rotate(90)"/><path class="a" d="M4.222,0A4.222,4.222,0,1,0,8.444,4.222,4.221,4.221,0,0,0,4.222,0Z" transform="translate(676.707 5344.191) rotate(90)"/></g></svg>