<?xml version="1.0" encoding="UTF-8"?>
<svg xmlns="http://www.w3.org/2000/svg" xmlns:xlink="http://www.w3.org/1999/xlink" width="61pt" height="61pt" viewBox="0 0 61 61" version="1.1">
<g id="surface1">
<path style=" stroke:none;fill-rule:nonzero;fill:rgb(43.529412%,74.509804%,29.019608%);fill-opacity:1;" d="M 53.363281 14.0625 L 23.191406 14.0625 C 23.09375 14.058594 22.996094 14.054688 22.898438 14.054688 L 15.152344 14.054688 C 11.636719 14.054688 8.777344 16.914062 8.777344 20.429688 L 8.777344 49.859375 C 8.777344 53.375 11.636719 56.234375 15.152344 56.234375 L 17.824219 56.234375 C 17.707031 57.566406 16.585938 58.617188 15.222656 58.617188 L 6.886719 58.617188 C 5.734375 58.617188 4.796875 57.679688 4.796875 56.527344 L 4.796875 45.992188 C 4.796875 45.332031 4.265625 44.800781 3.605469 44.800781 C 2.949219 44.800781 2.414062 45.332031 2.414062 45.992188 L 2.414062 56.527344 C 2.414062 58.992188 4.421875 61 6.886719 61 L 15.222656 61 C 17.902344 61 20.09375 58.882812 20.210938 56.234375 L 53.363281 56.234375 C 56.242188 56.234375 58.585938 53.890625 58.585938 51.011719 L 58.585938 19.285156 C 58.585938 16.402344 56.242188 14.0625 53.363281 14.0625 Z M 26.890625 49.859375 C 26.890625 52.058594 25.097656 53.851562 22.898438 53.851562 L 15.152344 53.851562 C 12.953125 53.851562 11.160156 52.058594 11.160156 49.859375 L 11.160156 20.429688 C 11.160156 18.226562 12.953125 16.4375 15.152344 16.4375 L 23.132812 16.445312 C 25.226562 16.566406 26.890625 18.304688 26.890625 20.429688 Z M 53.363281 53.851562 L 27.863281 53.851562 C 28.746094 52.757812 29.273438 51.371094 29.273438 49.859375 L 29.273438 20.429688 C 29.273438 18.921875 28.746094 17.535156 27.871094 16.445312 L 53.363281 16.445312 C 54.929688 16.445312 56.203125 17.71875 56.203125 19.285156 L 56.203125 51.011719 C 56.203125 52.578125 54.929688 53.851562 53.363281 53.851562 Z M 53.363281 53.851562 "/>
<path style=" stroke:none;fill-rule:nonzero;fill:rgb(43.529412%,74.509804%,29.019608%);fill-opacity:1;" d="M 52.628906 18.828125 L 32.847656 18.828125 C 32.191406 18.828125 31.65625 19.359375 31.65625 20.019531 L 31.65625 30.503906 C 31.65625 31.164062 32.191406 31.695312 32.847656 31.695312 L 52.628906 31.695312 C 53.285156 31.695312 53.820312 31.164062 53.820312 30.503906 L 53.820312 20.019531 C 53.820312 19.359375 53.285156 18.828125 52.628906 18.828125 Z M 51.4375 29.3125 L 34.039062 29.3125 L 34.039062 21.210938 L 51.4375 21.210938 Z M 51.4375 29.3125 "/>
<path style=" stroke:none;fill-rule:nonzero;fill:rgb(43.529412%,74.509804%,29.019608%);fill-opacity:1;" d="M 35.113281 36.335938 L 32.847656 36.335938 C 32.191406 36.335938 31.65625 36.867188 31.65625 37.527344 C 31.65625 38.183594 32.191406 38.71875 32.847656 38.71875 L 35.113281 38.71875 C 35.769531 38.71875 36.304688 38.183594 36.304688 37.527344 C 36.304688 36.867188 35.769531 36.335938 35.113281 36.335938 Z M 35.113281 36.335938 "/>
<path style=" stroke:none;fill-rule:nonzero;fill:rgb(43.529412%,74.509804%,29.019608%);fill-opacity:1;" d="M 43.871094 36.335938 L 41.605469 36.335938 C 40.949219 36.335938 40.414062 36.867188 40.414062 37.527344 C 40.414062 38.183594 40.949219 38.71875 41.605469 38.71875 L 43.871094 38.71875 C 44.527344 38.71875 45.0625 38.183594 45.0625 37.527344 C 45.0625 36.867188 44.527344 36.335938 43.871094 36.335938 Z M 43.871094 36.335938 "/>
<path style=" stroke:none;fill-rule:nonzero;fill:rgb(43.529412%,74.509804%,29.019608%);fill-opacity:1;" d="M 52.628906 36.335938 L 50.363281 36.335938 C 49.707031 36.335938 49.171875 36.867188 49.171875 37.527344 C 49.171875 38.183594 49.707031 38.71875 50.363281 38.71875 L 52.628906 38.71875 C 53.285156 38.71875 53.820312 38.183594 53.820312 37.527344 C 53.820312 36.867188 53.285156 36.335938 52.628906 36.335938 Z M 52.628906 36.335938 "/>
<path style=" stroke:none;fill-rule:nonzero;fill:rgb(43.529412%,74.509804%,29.019608%);fill-opacity:1;" d="M 35.113281 42.183594 L 32.847656 42.183594 C 32.191406 42.183594 31.65625 42.71875 31.65625 43.375 C 31.65625 44.035156 32.191406 44.566406 32.847656 44.566406 L 35.113281 44.566406 C 35.769531 44.566406 36.304688 44.035156 36.304688 43.375 C 36.304688 42.71875 35.769531 42.183594 35.113281 42.183594 Z M 35.113281 42.183594 "/>
<path style=" stroke:none;fill-rule:nonzero;fill:rgb(43.529412%,74.509804%,29.019608%);fill-opacity:1;" d="M 43.871094 42.183594 L 41.605469 42.183594 C 40.949219 42.183594 40.414062 42.71875 40.414062 43.375 C 40.414062 44.035156 40.949219 44.566406 41.605469 44.566406 L 43.871094 44.566406 C 44.527344 44.566406 45.0625 44.035156 45.0625 43.375 C 45.0625 42.71875 44.527344 42.183594 43.871094 42.183594 Z M 43.871094 42.183594 "/>
<path style=" stroke:none;fill-rule:nonzero;fill:rgb(43.529412%,74.509804%,29.019608%);fill-opacity:1;" d="M 52.628906 42.183594 L 50.363281 42.183594 C 49.707031 42.183594 49.171875 42.71875 49.171875 43.375 C 49.171875 44.035156 49.707031 44.566406 50.363281 44.566406 L 52.628906 44.566406 C 53.285156 44.566406 53.820312 44.035156 53.820312 43.375 C 53.820312 42.71875 53.285156 42.183594 52.628906 42.183594 Z M 52.628906 42.183594 "/>
<path style=" stroke:none;fill-rule:nonzero;fill:rgb(43.529412%,74.509804%,29.019608%);fill-opacity:1;" d="M 35.113281 48.035156 L 32.847656 48.035156 C 32.191406 48.035156 31.65625 48.566406 31.65625 49.226562 C 31.65625 49.882812 32.191406 50.417969 32.847656 50.417969 L 35.113281 50.417969 C 35.769531 50.417969 36.304688 49.882812 36.304688 49.226562 C 36.304688 48.566406 35.769531 48.035156 35.113281 48.035156 Z M 35.113281 48.035156 "/>
<path style=" stroke:none;fill-rule:nonzero;fill:rgb(43.529412%,74.509804%,29.019608%);fill-opacity:1;" d="M 43.871094 48.035156 L 41.605469 48.035156 C 40.949219 48.035156 40.414062 48.566406 40.414062 49.226562 C 40.414062 49.882812 40.949219 50.417969 41.605469 50.417969 L 43.871094 50.417969 C 44.527344 50.417969 45.0625 49.882812 45.0625 49.226562 C 45.0625 48.566406 44.527344 48.035156 43.871094 48.035156 Z M 43.871094 48.035156 "/>
<path style=" stroke:none;fill-rule:nonzero;fill:rgb(43.529412%,74.509804%,29.019608%);fill-opacity:1;" d="M 52.628906 48.035156 L 50.363281 48.035156 C 49.707031 48.035156 49.171875 48.566406 49.171875 49.226562 C 49.171875 49.882812 49.707031 50.417969 50.363281 50.417969 L 52.628906 50.417969 C 53.285156 50.417969 53.820312 49.882812 53.820312 49.226562 C 53.820312 48.566406 53.285156 48.035156 52.628906 48.035156 Z M 52.628906 48.035156 "/>
<path style=" stroke:none;fill-rule:nonzero;fill:rgb(43.529412%,74.509804%,29.019608%);fill-opacity:1;" d="M 49.277344 7.289062 C 47.53125 5.542969 45.207031 4.582031 42.738281 4.582031 C 40.265625 4.582031 37.945312 5.542969 36.199219 7.289062 C 35.734375 7.753906 35.734375 8.511719 36.199219 8.976562 C 36.664062 9.441406 37.417969 9.441406 37.882812 8.976562 C 39.179688 7.679688 40.902344 6.964844 42.738281 6.964844 C 44.570312 6.964844 46.292969 7.679688 47.589844 8.976562 C 47.824219 9.207031 48.128906 9.324219 48.433594 9.324219 C 48.738281 9.324219 49.042969 9.207031 49.277344 8.976562 C 49.742188 8.511719 49.742188 7.753906 49.277344 7.289062 Z M 49.277344 7.289062 "/>
<path style=" stroke:none;fill-rule:nonzero;fill:rgb(43.529412%,74.509804%,29.019608%);fill-opacity:1;" d="M 52.519531 4.046875 C 47.125 -1.347656 38.347656 -1.347656 32.953125 4.046875 C 32.488281 4.511719 32.488281 5.265625 32.953125 5.730469 C 33.417969 6.195312 34.175781 6.195312 34.640625 5.730469 C 39.105469 1.265625 46.371094 1.265625 50.835938 5.730469 C 51.070312 5.964844 51.375 6.078125 51.679688 6.078125 C 51.984375 6.078125 52.289062 5.964844 52.519531 5.730469 C 52.984375 5.265625 52.984375 4.511719 52.519531 4.046875 Z M 52.519531 4.046875 "/>
<path style=" stroke:none;fill-rule:nonzero;fill:rgb(43.529412%,74.509804%,29.019608%);fill-opacity:1;" d="M 46.105469 10.460938 C 44.25 8.601562 41.226562 8.601562 39.367188 10.460938 C 38.902344 10.925781 38.902344 11.679688 39.367188 12.144531 C 39.832031 12.609375 40.589844 12.609375 41.054688 12.144531 C 41.980469 11.21875 43.492188 11.21875 44.421875 12.144531 C 44.652344 12.378906 44.960938 12.496094 45.265625 12.496094 C 45.570312 12.496094 45.875 12.378906 46.105469 12.144531 C 46.570312 11.679688 46.570312 10.925781 46.105469 10.460938 Z M 46.105469 10.460938 "/>
<path style=" stroke:none;fill-rule:nonzero;fill:rgb(43.529412%,74.509804%,29.019608%);fill-opacity:1;" d="M 5.734375 24.070312 L 3.605469 24.070312 C 2.949219 24.070312 2.414062 24.601562 2.414062 25.261719 L 2.414062 36.636719 C 2.414062 37.296875 2.949219 37.828125 3.605469 37.828125 C 4.265625 37.828125 4.796875 37.296875 4.796875 36.636719 L 4.796875 26.453125 L 5.734375 26.453125 C 6.394531 26.453125 6.925781 25.917969 6.925781 25.261719 C 6.925781 24.601562 6.394531 24.070312 5.734375 24.070312 Z M 5.734375 24.070312 "/>
<path style=" stroke:none;fill-rule:nonzero;fill:rgb(43.529412%,74.509804%,29.019608%);fill-opacity:1;" d="M 4.449219 40.5625 C 4.226562 40.339844 3.921875 40.210938 3.605469 40.210938 C 3.292969 40.210938 2.984375 40.339844 2.765625 40.5625 C 2.542969 40.785156 2.414062 41.089844 2.414062 41.402344 C 2.414062 41.71875 2.542969 42.023438 2.765625 42.246094 C 2.984375 42.46875 3.292969 42.59375 3.605469 42.59375 C 3.917969 42.59375 4.226562 42.46875 4.449219 42.246094 C 4.671875 42.023438 4.796875 41.71875 4.796875 41.402344 C 4.796875 41.089844 4.671875 40.785156 4.449219 40.5625 Z M 4.449219 40.5625 "/>
<path style=" stroke:none;fill-rule:nonzero;fill:rgb(43.529412%,74.509804%,29.019608%);fill-opacity:1;" d="M 38.335938 24.417969 C 38.117188 24.195312 37.808594 24.070312 37.496094 24.070312 C 37.179688 24.070312 36.875 24.195312 36.652344 24.417969 C 36.429688 24.640625 36.304688 24.949219 36.304688 25.261719 C 36.304688 25.574219 36.429688 25.882812 36.652344 26.105469 C 36.875 26.324219 37.179688 26.453125 37.496094 26.453125 C 37.808594 26.453125 38.117188 26.324219 38.335938 26.105469 C 38.558594 25.882812 38.6875 25.574219 38.6875 25.261719 C 38.6875 24.949219 38.558594 24.640625 38.335938 24.417969 Z M 38.335938 24.417969 "/>
<path style=" stroke:none;fill-rule:nonzero;fill:rgb(43.529412%,74.509804%,29.019608%);fill-opacity:1;" d="M 43.578125 24.417969 C 43.359375 24.195312 43.050781 24.070312 42.738281 24.070312 C 42.425781 24.070312 42.117188 24.195312 41.894531 24.417969 C 41.671875 24.640625 41.546875 24.949219 41.546875 25.261719 C 41.546875 25.574219 41.671875 25.882812 41.894531 26.105469 C 42.117188 26.324219 42.425781 26.453125 42.738281 26.453125 C 43.050781 26.453125 43.359375 26.324219 43.578125 26.105469 C 43.800781 25.882812 43.929688 25.574219 43.929688 25.261719 C 43.929688 24.949219 43.800781 24.640625 43.578125 24.417969 Z M 43.578125 24.417969 "/>
<path style=" stroke:none;fill-rule:nonzero;fill:rgb(43.529412%,74.509804%,29.019608%);fill-opacity:1;" d="M 48.824219 24.417969 C 48.601562 24.195312 48.292969 24.070312 47.980469 24.070312 C 47.667969 24.070312 47.359375 24.195312 47.136719 24.417969 C 46.917969 24.640625 46.789062 24.949219 46.789062 25.261719 C 46.789062 25.574219 46.917969 25.882812 47.136719 26.105469 C 47.359375 26.324219 47.667969 26.453125 47.980469 26.453125 C 48.292969 26.453125 48.601562 26.324219 48.824219 26.105469 C 49.042969 25.882812 49.171875 25.574219 49.171875 25.261719 C 49.171875 24.949219 49.042969 24.640625 48.824219 24.417969 Z M 48.824219 24.417969 "/>
<path style=" stroke:none;fill-rule:nonzero;fill:rgb(43.529412%,74.509804%,29.019608%);fill-opacity:1;" d="M 22.839844 31.886719 C 22.179688 31.886719 21.648438 32.421875 21.648438 33.078125 L 21.648438 43.375 C 21.648438 44.035156 22.179688 44.566406 22.839844 44.566406 C 23.496094 44.566406 24.03125 44.035156 24.03125 43.375 L 24.03125 33.078125 C 24.03125 32.421875 23.496094 31.886719 22.839844 31.886719 Z M 22.839844 31.886719 "/>
<path style=" stroke:none;fill-rule:nonzero;fill:rgb(43.529412%,74.509804%,29.019608%);fill-opacity:1;" d="M 23.679688 27.1875 C 23.460938 26.96875 23.152344 26.839844 22.839844 26.839844 C 22.527344 26.839844 22.21875 26.96875 21.996094 27.1875 C 21.773438 27.410156 21.648438 27.71875 21.648438 28.03125 C 21.648438 28.347656 21.773438 28.652344 21.996094 28.875 C 22.21875 29.09375 22.527344 29.222656 22.839844 29.222656 C 23.152344 29.222656 23.460938 29.09375 23.679688 28.875 C 23.902344 28.652344 24.03125 28.347656 24.03125 28.03125 C 24.03125 27.71875 23.902344 27.410156 23.679688 27.1875 Z M 23.679688 27.1875 "/>
</g>
</svg>
