<svg xmlns="http://www.w3.org/2000/svg" width="24.677" height="24.679" viewBox="0 0 24.677 24.679">
  <g id="Group_35873" data-name="Group 35873" transform="translate(-910 -739)">
    <g id="telephone_1_" data-name="telephone (1)" transform="translate(909.989 739)">
      <g id="Group_35864" data-name="Group 35864" transform="translate(0.011 0)">
        <path id="Path_38193" data-name="Path 38193" d="M24.054,18.2l-3.068-3.068a2.172,2.172,0,0,0-3.068,0l-1.394,1.394a1.645,1.645,0,0,1-2.324,0L8.155,10.479a1.643,1.643,0,0,1,0-2.324L9.55,6.761a2.168,2.168,0,0,0,0-3.069L6.482.635a2.171,2.171,0,0,0-3.066,0L2.3,1.741A7.832,7.832,0,0,0,2.3,12.8l9.577,9.582a7.818,7.818,0,0,0,11.063,0l1.116-1.116A2.172,2.172,0,0,0,24.054,18.2ZM4.436,1.657a.724.724,0,0,1,1.023,0L8.527,4.715a.723.723,0,0,1,0,1.023l-.511.511L3.928,2.161ZM12.9,21.363,3.321,11.781a6.358,6.358,0,0,1-.4-8.58L7,7.277A3.087,3.087,0,0,0,7.132,11.5l6.044,6.049h0a3.086,3.086,0,0,0,4.225.135l4.076,4.076A6.345,6.345,0,0,1,12.9,21.363Zm10.133-1.116-.511.511-4.091-4.091.511-.511a.724.724,0,0,1,1.023,0l3.068,3.068A.724.724,0,0,1,23.031,20.247Z" transform="translate(-0.011 0)" fill="#6fbe4a"/>
      </g>
    </g>
    <g id="telephone_1_2" data-name="telephone (1)" transform="translate(909.989 739)">
      <g id="Group_35864-2" data-name="Group 35864" transform="translate(0.011 0)">
        <path id="Path_38193-2" data-name="Path 38193" d="M24.054,18.2l-3.068-3.068a2.172,2.172,0,0,0-3.068,0l-1.394,1.394a1.645,1.645,0,0,1-2.324,0L8.155,10.479a1.643,1.643,0,0,1,0-2.324L9.55,6.761a2.168,2.168,0,0,0,0-3.069L6.482.635a2.171,2.171,0,0,0-3.066,0L2.3,1.741A7.832,7.832,0,0,0,2.3,12.8l9.577,9.582a7.818,7.818,0,0,0,11.063,0l1.116-1.116A2.172,2.172,0,0,0,24.054,18.2ZM4.436,1.657a.724.724,0,0,1,1.023,0L8.527,4.715a.723.723,0,0,1,0,1.023l-.511.511L3.928,2.161ZM12.9,21.363,3.321,11.781a6.358,6.358,0,0,1-.4-8.58L7,7.277A3.087,3.087,0,0,0,7.132,11.5l6.044,6.049h0a3.086,3.086,0,0,0,4.225.135l4.076,4.076A6.345,6.345,0,0,1,12.9,21.363Zm10.133-1.116-.511.511-4.091-4.091.511-.511a.724.724,0,0,1,1.023,0l3.068,3.068A.724.724,0,0,1,23.031,20.247Z" transform="translate(-0.011 0)" fill="#6fbe4a"/>
      </g>
    </g>
  </g>
</svg>
