<svg xmlns="http://www.w3.org/2000/svg" width="54" height="67.171" viewBox="0 0 54 67.171">
  <g id="Group_35904" data-name="Group 35904" transform="translate(-95 -1307.615)">
    <g id="track" transform="translate(95 1307.615)">
      <path id="Path_38199" data-name="Path 38199" d="M106.145,180.04a.635.635,0,0,0-.049-.05,3.388,3.388,0,0,0-2.412-1.154,3.585,3.585,0,0,0-2.5,1.184l-4.074,4.074a1.565,1.565,0,0,1-1.109.531,1.585,1.585,0,0,1-.714-.181l-.01-.006c-.033-.021-.066-.041-.1-.059-.371-.228-.779-.433-1.211-.649l-.025-.012a15.561,15.561,0,0,1-1.377-.748,42.7,42.7,0,0,1-10.339-9.412l-.032-.038a25.174,25.174,0,0,1-3.671-5.982l-.017-.052a1.448,1.448,0,0,1,.375-1.7l.036-.038c1.01-.9,1.934-1.824,3.008-2.924l.044-.044c.227-.218.448-.443.663-.66l.323-.326a3.24,3.24,0,0,0,0-5.1l-3.248-3.248q-.283-.292-.566-.577c-.189-.192-.376-.382-.56-.571-.643-.664-1.394-1.434-2.177-2.167l-.027-.026a3.461,3.461,0,0,0-2.428-1.112,3.684,3.684,0,0,0-2.488,1.114l-.024.023-4.062,4.063a6.428,6.428,0,0,0-1.93,4.159,17.887,17.887,0,0,0,1.393,7.882,49.389,49.389,0,0,0,8.747,14.577A53.91,53.91,0,0,0,93.5,194.84a26.737,26.737,0,0,0,9.649,2.881c.215.015.429.015.618.015a6.764,6.764,0,0,0,5.2-2.208l.031-.035a30.817,30.817,0,0,1,2.237-2.316l.3-.3.267-.26c.289-.285.595-.589.9-.914l0-.005a3.327,3.327,0,0,0-.025-5.119Zm-33.317-28.5a1.769,1.769,0,0,1,1.121-.567,1.611,1.611,0,0,1,1.038.544l.023.022.042.041c.673.63,1.328,1.293,2.1,2.1q.282.291.571.583l.561.572.01.01,3.252,3.252a1.326,1.326,0,0,1,0,2.291l-.281.283-8.785-8.785Zm34.68,42.646a4.754,4.754,0,0,1-3.74,1.563c-.164,0-.333,0-.485-.011a24.9,24.9,0,0,1-8.922-2.689A51.926,51.926,0,0,1,77.108,179.54a47.464,47.464,0,0,1-8.412-14,16.044,16.044,0,0,1-1.275-7.026,4.461,4.461,0,0,1,1.356-2.921l2.307-2.307,8.789,8.789c-.793.8-1.522,1.511-2.3,2.2l-.011.01a1.116,1.116,0,0,0-.141.142,3.406,3.406,0,0,0-.81,3.655c.014.046.03.093.046.139l.017.042a27.068,27.068,0,0,0,3.985,6.514q.024.03.049.058a44.606,44.606,0,0,0,10.791,9.8,17.28,17.28,0,0,0,1.551.846l.022.011c.4.2.779.39,1.081.577l.052.03.014.009c.048.03.1.059.154.089a3.567,3.567,0,0,0,1.624.4,3.483,3.483,0,0,0,2.512-1.112L100.9,183.1l8.8,8.8a31.332,31.332,0,0,0-2.193,2.286Zm3.786-3.871-.023.024c-.052.057-.105.112-.158.167l-8.805-8.806.28-.28a1.82,1.82,0,0,1,1.1-.6,1.513,1.513,0,0,1,.982.545l.042.043h0l.037.034-.037-.034.013.013,6.568,6.566c.834.827.836,1.459,0,2.33Z" transform="translate(-65.4 -130.565)"/>
      <path id="Path_38200" data-name="Path 38200" d="M210.591,18.91a18.306,18.306,0,0,0-6.445,35.316l-.366,9.138a.992.992,0,0,0,1.788.63l6.379-8.613a18.273,18.273,0,0,0-1.355-36.471Zm.785,34.519a.992.992,0,0,0-.749.4l-4.737,6.4.266-6.643a.992.992,0,0,0-.67-.977,15.992,15.992,0,1,1,5.89.824Z" transform="translate(-174.581 -18.91)"/>
    </g>
    <path id="Path_38201" data-name="Path 38201" d="M79.513,39.022V32.809a3.532,3.532,0,0,1,1.742,1.222,1.347,1.347,0,0,0,1.72.312,1.018,1.018,0,0,0,.354-1.516,6.12,6.12,0,0,0-3.816-2.29V28.8a1.252,1.252,0,0,0-2.484,0v1.735a5.561,5.561,0,0,0-4.82,5.225,5.562,5.562,0,0,0,4.82,5.225V47.2a3.532,3.532,0,0,1-1.742-1.222,1.347,1.347,0,0,0-1.72-.312,1.018,1.018,0,0,0-.354,1.516,6.12,6.12,0,0,0,3.816,2.29v1.738a1.252,1.252,0,0,0,2.484,0V49.472a5.561,5.561,0,0,0,4.82-5.225,5.562,5.562,0,0,0-4.82-5.225Zm-4.82-3.262a3.2,3.2,0,0,1,2.336-2.95v5.9A3.2,3.2,0,0,1,74.693,35.76ZM79.513,47.2V41.3a3.031,3.031,0,0,1,0,5.9Z" transform="translate(52.769 1285.87)"/>
  </g>
</svg>
