<?xml version="1.0" encoding="UTF-8"?>
<svg xmlns="http://www.w3.org/2000/svg" xmlns:xlink="http://www.w3.org/1999/xlink" width="61pt" height="61pt" viewBox="0 0 61 61" version="1.1">
<g id="surface1">
<path style=" stroke:none;fill-rule:nonzero;fill:rgb(43.529412%,74.509804%,29.019608%);fill-opacity:1;" d="M 60.992188 41.023438 C 60.917969 39.660156 60.246094 38.410156 59.148438 37.597656 C 57.375 36.28125 54.910156 36.417969 53.292969 37.925781 L 43.054688 47.460938 C 42.574219 47.90625 42.027344 48.257812 41.433594 48.5 C 41.5625 48.15625 41.652344 47.789062 41.691406 47.402344 C 41.902344 45.261719 40.546875 43.324219 38.460938 42.796875 L 26.699219 39.808594 C 24.441406 39.238281 22.0625 39.28125 19.828125 39.933594 L 11.914062 42.253906 L 11.914062 41.222656 C 11.914062 40.5625 11.378906 40.03125 10.722656 40.03125 L 1.191406 40.03125 C 0.535156 40.03125 0 40.5625 0 41.222656 L 0 59.804688 C 0 60.464844 0.535156 60.996094 1.191406 60.996094 L 10.722656 60.996094 C 11.378906 60.996094 11.914062 60.464844 11.914062 59.804688 L 36.667969 59.804688 C 40.90625 59.804688 44.945312 58.214844 48.046875 55.328125 L 59.539062 44.632812 C 60.539062 43.699219 61.070312 42.386719 60.992188 41.023438 Z M 9.53125 43.820312 C 9.53125 43.824219 9.53125 43.824219 9.53125 43.828125 L 9.53125 58.613281 L 2.382812 58.613281 L 2.382812 42.414062 L 4.765625 42.414062 L 4.765625 50.515625 C 4.765625 51.171875 5.296875 51.707031 5.957031 51.707031 C 6.613281 51.707031 7.148438 51.171875 7.148438 50.515625 L 7.148438 42.414062 L 9.53125 42.414062 Z M 57.917969 42.886719 L 46.425781 53.585938 C 43.765625 56.058594 40.300781 57.421875 36.667969 57.421875 L 11.914062 57.421875 L 11.914062 44.734375 L 20.496094 42.222656 C 22.324219 41.6875 24.265625 41.652344 26.113281 42.121094 L 37.875 45.105469 C 38.808594 45.34375 39.414062 46.210938 39.320312 47.167969 C 39.21875 48.15625 38.398438 48.898438 37.40625 48.90625 L 33.476562 48.90625 C 33.476562 48.90625 33.472656 48.90625 33.46875 48.90625 L 27.835938 48.90625 C 27.175781 48.90625 26.644531 49.4375 26.644531 50.097656 C 26.644531 50.753906 27.175781 51.289062 27.835938 51.289062 L 37.398438 51.289062 C 37.40625 51.289062 37.410156 51.285156 37.417969 51.285156 L 39.386719 51.285156 C 41.355469 51.285156 43.238281 50.546875 44.679688 49.203125 L 54.917969 39.667969 C 55.695312 38.945312 56.875 38.878906 57.726562 39.511719 C 58.253906 39.902344 58.578125 40.5 58.613281 41.15625 C 58.652344 41.808594 58.394531 42.441406 57.917969 42.886719 Z M 57.917969 42.886719 "/>
<path style=" stroke:none;fill-rule:nonzero;fill:rgb(43.529412%,74.509804%,29.019608%);fill-opacity:1;" d="M 52.945312 13.210938 C 50.847656 5.433594 43.75 0.00390625 35.683594 0.00390625 C 35.027344 0.00390625 34.492188 0.535156 34.492188 1.195312 C 34.492188 1.851562 35.027344 2.386719 35.683594 2.386719 C 42.675781 2.386719 48.828125 7.09375 50.644531 13.832031 C 50.789062 14.363281 51.269531 14.714844 51.792969 14.714844 C 51.898438 14.714844 52 14.703125 52.105469 14.671875 C 52.738281 14.503906 53.117188 13.847656 52.945312 13.210938 Z M 52.945312 13.210938 "/>
<path style=" stroke:none;fill-rule:nonzero;fill:rgb(43.529412%,74.509804%,29.019608%);fill-opacity:1;" d="M 52.371094 16.667969 C 51.710938 16.667969 51.179688 17.203125 51.179688 17.859375 L 51.179688 17.878906 C 51.179688 18.539062 51.710938 19.070312 52.371094 19.070312 C 53.027344 19.070312 53.558594 18.539062 53.558594 17.878906 L 53.558594 17.859375 C 53.558594 17.203125 53.027344 16.667969 52.371094 16.667969 Z M 52.371094 16.667969 "/>
<path style=" stroke:none;fill-rule:nonzero;fill:rgb(43.529412%,74.509804%,29.019608%);fill-opacity:1;" d="M 35.683594 5.867188 C 35.027344 5.867188 34.492188 6.402344 34.492188 7.058594 C 34.492188 7.714844 35.027344 8.25 35.683594 8.25 C 40.992188 8.25 45.3125 12.570312 45.3125 17.878906 C 45.3125 18.539062 45.847656 19.070312 46.503906 19.070312 C 47.164062 19.070312 47.695312 18.539062 47.695312 17.878906 C 47.695312 11.257812 42.308594 5.867188 35.683594 5.867188 Z M 35.683594 5.867188 "/>
<path style=" stroke:none;fill-rule:nonzero;fill:rgb(43.529412%,74.509804%,29.019608%);fill-opacity:1;" d="M 35.683594 12.050781 C 35.027344 12.050781 34.492188 12.582031 34.492188 13.242188 C 34.492188 13.898438 35.027344 14.433594 35.683594 14.433594 C 37.582031 14.433594 39.128906 15.980469 39.128906 17.878906 C 39.128906 18.539062 39.664062 19.070312 40.320312 19.070312 C 40.980469 19.070312 41.511719 18.539062 41.511719 17.878906 C 41.511719 14.664062 38.898438 12.050781 35.683594 12.050781 Z M 35.683594 12.050781 "/>
<path style=" stroke:none;fill-rule:nonzero;fill:rgb(43.529412%,74.509804%,29.019608%);fill-opacity:1;" d="M 44.871094 28.933594 L 39.808594 23.871094 C 38.265625 22.328125 35.757812 22.328125 34.214844 23.871094 L 33.886719 24.203125 C 33.515625 24.570312 32.917969 24.570312 32.550781 24.203125 L 28.929688 20.582031 C 28.5625 20.214844 28.5625 19.613281 28.929688 19.246094 L 29.261719 18.917969 C 30.804688 17.375 30.804688 14.867188 29.261719 13.324219 L 24.199219 8.261719 C 23.453125 7.515625 22.460938 7.105469 21.402344 7.105469 C 20.347656 7.105469 19.355469 7.515625 18.605469 8.261719 L 17.394531 9.472656 C 13.644531 13.226562 13.644531 19.332031 17.394531 23.082031 L 30.046875 35.738281 C 31.925781 37.613281 34.386719 38.550781 36.855469 38.550781 C 39.316406 38.550781 41.78125 37.613281 43.660156 35.738281 L 44.871094 34.527344 C 45.617188 33.777344 46.027344 32.785156 46.027344 31.730469 C 46.027344 30.671875 45.617188 29.679688 44.871094 28.933594 Z M 43.183594 32.839844 L 42.660156 33.367188 L 38.21875 28.921875 C 37.753906 28.457031 37 28.457031 36.53125 28.921875 C 36.066406 29.386719 36.066406 30.144531 36.53125 30.609375 L 40.875 34.953125 C 38.0625 36.832031 34.214844 36.535156 31.734375 34.050781 L 19.082031 21.398438 C 16.257812 18.574219 16.257812 13.980469 19.082031 11.160156 L 20.292969 9.949219 C 20.597656 9.640625 21 9.488281 21.402344 9.488281 C 21.804688 9.488281 22.210938 9.640625 22.515625 9.949219 L 27.574219 15.007812 C 28.1875 15.621094 28.1875 16.621094 27.574219 17.234375 L 27.246094 17.5625 C 27.179688 17.628906 27.121094 17.695312 27.058594 17.765625 L 23.246094 13.953125 C 22.78125 13.488281 22.027344 13.488281 21.5625 13.953125 C 21.097656 14.417969 21.097656 15.171875 21.5625 15.636719 L 26.304688 20.382812 C 26.402344 21.070312 26.714844 21.738281 27.246094 22.265625 L 30.867188 25.886719 C 32.164062 27.183594 34.273438 27.183594 35.570312 25.886719 L 35.898438 25.558594 C 36.511719 24.945312 37.511719 24.941406 38.125 25.558594 L 43.183594 30.617188 C 43.796875 31.230469 43.796875 32.226562 43.183594 32.839844 Z M 43.183594 32.839844 "/>
<path style=" stroke:none;fill-rule:nonzero;fill:rgb(43.529412%,74.509804%,29.019608%);fill-opacity:1;" d="M 6.800781 54.078125 C 6.578125 53.859375 6.269531 53.730469 5.957031 53.730469 C 5.644531 53.730469 5.335938 53.859375 5.113281 54.078125 C 4.894531 54.300781 4.765625 54.609375 4.765625 54.921875 C 4.765625 55.234375 4.894531 55.542969 5.113281 55.765625 C 5.335938 55.984375 5.644531 56.113281 5.957031 56.113281 C 6.269531 56.113281 6.578125 55.984375 6.800781 55.765625 C 7.019531 55.542969 7.148438 55.234375 7.148438 54.921875 C 7.148438 54.609375 7.019531 54.300781 6.800781 54.078125 Z M 6.800781 54.078125 "/>
</g>
</svg>
