<svg xmlns="http://www.w3.org/2000/svg" width="21.035" height="26" viewBox="0 0 21.035 26">
  <g id="place" transform="translate(-48.886)">
    <g id="Group_35866" data-name="Group 35866" transform="translate(48.886)">
      <g id="Group_35865" data-name="Group 35865">
        <path id="Path_38194" data-name="Path 38194" d="M68.034,4.521a10.5,10.5,0,0,0-17.26,0,10.5,10.5,0,0,0-1.222,9.674,8.269,8.269,0,0,0,1.524,2.516l7.636,8.97a.908.908,0,0,0,1.384,0l7.634-8.967A8.277,8.277,0,0,0,69.254,14.2,10.5,10.5,0,0,0,68.034,4.521Zm-.482,9.043a6.485,6.485,0,0,1-1.2,1.964l0,0L59.4,23.689l-6.948-8.162a6.489,6.489,0,0,1-1.2-1.97,8.685,8.685,0,0,1,1.015-8,8.68,8.68,0,0,1,14.269,0A8.686,8.686,0,0,1,67.551,13.563Z" transform="translate(-48.886)" fill="#6fbe4a"/>
      </g>
    </g>
    <g id="Group_35868" data-name="Group 35868" transform="translate(54.313 5.394)">
      <g id="Group_35867" data-name="Group 35867">
        <path id="Path_38195" data-name="Path 38195" d="M160.845,106.219a5.091,5.091,0,1,0,5.091,5.091A5.1,5.1,0,0,0,160.845,106.219Zm0,8.364a3.273,3.273,0,1,1,3.273-3.273A3.277,3.277,0,0,1,160.845,114.583Z" transform="translate(-155.754 -106.219)" fill="#6fbe4a"/>
      </g>
    </g>
  </g>
</svg>
