<?xml version="1.0" encoding="UTF-8"?>
<svg xmlns="http://www.w3.org/2000/svg" xmlns:xlink="http://www.w3.org/1999/xlink" width="62pt" height="62pt" viewBox="0 0 62 62" version="1.1">
<g id="surface1">
<path style=" stroke:none;fill-rule:nonzero;fill:rgb(43.529412%,74.509804%,29.019608%);fill-opacity:1;" d="M 21.722656 29.941406 C 19.375 27.292969 16.246094 25.832031 12.910156 25.832031 C 9.574219 25.832031 6.445312 27.292969 4.097656 29.941406 C -0.667969 35.328125 -0.667969 44.085938 4.097656 49.472656 L 12.910156 59.425781 L 21.71875 49.472656 C 26.488281 44.085938 26.488281 35.328125 21.722656 29.941406 Z M 20.171875 48.101562 L 12.910156 56.308594 L 5.644531 48.101562 C 1.546875 43.472656 1.546875 35.941406 5.644531 31.3125 C 7.59375 29.113281 10.175781 27.898438 12.910156 27.898438 C 15.644531 27.898438 18.226562 29.113281 20.171875 31.3125 C 24.269531 35.941406 24.269531 43.472656 20.171875 48.101562 Z M 20.171875 48.101562 "/>
<path style=" stroke:none;fill-rule:nonzero;fill:rgb(43.529412%,74.509804%,29.019608%);fill-opacity:1;" d="M 50.371094 25.324219 L 57.050781 17.796875 C 60.644531 13.746094 60.644531 7.15625 57.050781 3.105469 C 55.273438 1.101562 52.902344 0 50.371094 0 C 47.839844 0 45.46875 1.101562 43.691406 3.105469 C 40.097656 7.15625 40.097656 13.746094 43.691406 17.796875 Z M 45.238281 4.476562 C 46.617188 2.921875 48.441406 2.066406 50.371094 2.066406 C 52.304688 2.066406 54.125 2.921875 55.503906 4.476562 C 58.429688 7.769531 58.429688 13.128906 55.503906 16.421875 L 50.371094 22.210938 L 45.238281 16.421875 C 42.316406 13.128906 42.316406 7.769531 45.238281 4.476562 Z M 45.238281 4.476562 "/>
<path style=" stroke:none;fill-rule:nonzero;fill:rgb(43.529412%,74.509804%,29.019608%);fill-opacity:1;" d="M 54.359375 56.335938 C 53.800781 56.210938 53.246094 56.558594 53.121094 57.117188 C 53.003906 57.640625 52.773438 58.128906 52.4375 58.554688 C 52.085938 59.003906 52.160156 59.652344 52.609375 60.003906 C 52.800781 60.152344 53.027344 60.226562 53.25 60.226562 C 53.554688 60.226562 53.859375 60.089844 54.0625 59.832031 C 54.582031 59.167969 54.953125 58.386719 55.136719 57.570312 C 55.265625 57.011719 54.914062 56.460938 54.359375 56.335938 Z M 54.359375 56.335938 "/>
<path style=" stroke:none;fill-rule:nonzero;fill:rgb(43.529412%,74.509804%,29.019608%);fill-opacity:1;" d="M 33.0625 32.035156 C 32.613281 32.03125 32.179688 31.953125 31.769531 31.796875 C 31.238281 31.59375 30.636719 31.859375 30.433594 32.394531 C 30.230469 32.925781 30.5 33.523438 31.03125 33.726562 C 31.679688 33.972656 32.359375 34.097656 33.058594 34.101562 L 33.429688 34.101562 C 34 34.101562 34.460938 33.636719 34.460938 33.066406 C 34.460938 32.496094 34 32.035156 33.429688 32.035156 Z M 33.0625 32.035156 "/>
<path style=" stroke:none;fill-rule:nonzero;fill:rgb(43.529412%,74.509804%,29.019608%);fill-opacity:1;" d="M 30.609375 25.5 C 30.796875 25.5 30.984375 25.449219 31.152344 25.34375 C 31.613281 25.058594 32.117188 24.882812 32.65625 24.824219 C 33.222656 24.757812 33.632812 24.25 33.570312 23.683594 C 33.507812 23.113281 33 22.710938 32.429688 22.765625 C 31.582031 22.863281 30.78125 23.136719 30.058594 23.589844 C 29.574219 23.890625 29.429688 24.527344 29.730469 25.011719 C 29.925781 25.324219 30.261719 25.5 30.609375 25.5 Z M 30.609375 25.5 "/>
<path style=" stroke:none;fill-rule:nonzero;fill:rgb(43.529412%,74.509804%,29.019608%);fill-opacity:1;" d="M 18.667969 59.933594 L 16.597656 59.933594 C 16.027344 59.933594 15.566406 60.394531 15.566406 60.964844 C 15.566406 61.539062 16.027344 62 16.597656 62 L 18.667969 62 C 19.238281 62 19.699219 61.539062 19.699219 60.964844 C 19.699219 60.394531 19.238281 59.933594 18.667969 59.933594 Z M 18.667969 59.933594 "/>
<path style=" stroke:none;fill-rule:nonzero;fill:rgb(43.529412%,74.509804%,29.019608%);fill-opacity:1;" d="M 37.191406 41.332031 C 37.105469 41.332031 37.015625 41.335938 36.929688 41.339844 C 36.359375 41.363281 35.914062 41.84375 35.9375 42.414062 C 35.960938 42.96875 36.417969 43.40625 36.96875 43.40625 C 36.984375 43.40625 37 43.40625 37.011719 43.402344 L 39.039062 43.398438 C 39.609375 43.398438 40.070312 42.9375 40.070312 42.367188 C 40.070312 41.796875 39.609375 41.332031 39.039062 41.332031 Z M 37.191406 41.332031 "/>
<path style=" stroke:none;fill-rule:nonzero;fill:rgb(43.529412%,74.509804%,29.019608%);fill-opacity:1;" d="M 36.675781 24.800781 L 38.742188 24.800781 C 39.3125 24.800781 39.777344 24.339844 39.777344 23.765625 C 39.777344 23.195312 39.3125 22.734375 38.742188 22.734375 L 36.675781 22.734375 C 36.105469 22.734375 35.644531 23.195312 35.644531 23.765625 C 35.644531 24.339844 36.105469 24.800781 36.675781 24.800781 Z M 36.675781 24.800781 "/>
<path style=" stroke:none;fill-rule:nonzero;fill:rgb(43.529412%,74.509804%,29.019608%);fill-opacity:1;" d="M 49.371094 41.332031 C 48.800781 41.332031 48.335938 41.796875 48.335938 42.367188 C 48.335938 42.9375 48.800781 43.398438 49.371094 43.398438 L 51.4375 43.398438 C 52.007812 43.398438 52.46875 42.9375 52.46875 42.367188 C 52.46875 41.796875 52.007812 41.332031 51.4375 41.332031 Z M 49.371094 41.332031 "/>
<path style=" stroke:none;fill-rule:nonzero;fill:rgb(43.529412%,74.509804%,29.019608%);fill-opacity:1;" d="M 53.0625 33.066406 C 53.0625 32.496094 52.601562 32.035156 52.03125 32.035156 L 49.960938 32.035156 C 49.390625 32.035156 48.929688 32.496094 48.929688 33.066406 C 48.929688 33.636719 49.390625 34.101562 49.960938 34.101562 L 52.03125 34.101562 C 52.601562 34.101562 53.0625 33.636719 53.0625 33.066406 Z M 53.0625 33.066406 "/>
<path style=" stroke:none;fill-rule:nonzero;fill:rgb(43.529412%,74.509804%,29.019608%);fill-opacity:1;" d="M 43.171875 43.398438 L 45.238281 43.398438 C 45.808594 43.398438 46.269531 42.9375 46.269531 42.367188 C 46.269531 41.796875 45.808594 41.332031 45.238281 41.332031 L 43.171875 41.332031 C 42.597656 41.332031 42.136719 41.796875 42.136719 42.367188 C 42.136719 42.9375 42.601562 43.398438 43.171875 43.398438 Z M 43.171875 43.398438 "/>
<path style=" stroke:none;fill-rule:nonzero;fill:rgb(43.529412%,74.509804%,29.019608%);fill-opacity:1;" d="M 44.941406 24.800781 C 45.515625 24.800781 45.976562 24.339844 45.976562 23.765625 C 45.976562 23.195312 45.515625 22.734375 44.941406 22.734375 L 42.875 22.734375 C 42.304688 22.734375 41.84375 23.195312 41.84375 23.765625 C 41.84375 24.339844 42.304688 24.800781 42.875 24.800781 Z M 44.941406 24.800781 "/>
<path style=" stroke:none;fill-rule:nonzero;fill:rgb(43.529412%,74.509804%,29.019608%);fill-opacity:1;" d="M 37.5625 32.035156 C 36.992188 32.035156 36.53125 32.496094 36.53125 33.066406 C 36.53125 33.636719 36.992188 34.101562 37.5625 34.101562 L 39.628906 34.101562 C 40.199219 34.101562 40.664062 33.636719 40.664062 33.066406 C 40.664062 32.496094 40.199219 32.035156 39.628906 32.035156 Z M 37.5625 32.035156 "/>
<path style=" stroke:none;fill-rule:nonzero;fill:rgb(43.529412%,74.509804%,29.019608%);fill-opacity:1;" d="M 46.863281 33.066406 C 46.863281 32.496094 46.402344 32.035156 45.828125 32.035156 L 43.761719 32.035156 C 43.191406 32.035156 42.730469 32.496094 42.730469 33.066406 C 42.730469 33.636719 43.191406 34.101562 43.761719 34.101562 L 45.828125 34.101562 C 46.398438 34.101562 46.863281 33.636719 46.863281 33.066406 Z M 46.863281 33.066406 "/>
<path style=" stroke:none;fill-rule:nonzero;fill:rgb(43.529412%,74.509804%,29.019608%);fill-opacity:1;" d="M 61.40625 36.820312 C 61.316406 36.253906 60.785156 35.871094 60.222656 35.964844 C 59.660156 36.054688 59.273438 36.585938 59.367188 37.148438 C 59.394531 37.332031 59.410156 37.519531 59.410156 37.71875 C 59.410156 38.066406 59.359375 38.40625 59.261719 38.738281 C 59.101562 39.285156 59.414062 39.859375 59.964844 40.019531 C 60.0625 40.050781 60.160156 40.0625 60.253906 40.0625 C 60.703125 40.0625 61.113281 39.769531 61.246094 39.320312 C 61.398438 38.800781 61.476562 38.261719 61.476562 37.726562 C 61.476562 37.425781 61.457031 37.121094 61.40625 36.820312 Z M 61.40625 36.820312 "/>
<path style=" stroke:none;fill-rule:nonzero;fill:rgb(43.529412%,74.509804%,29.019608%);fill-opacity:1;" d="M 43.464844 59.933594 L 41.398438 59.933594 C 40.828125 59.933594 40.367188 60.394531 40.367188 60.964844 C 40.367188 61.539062 40.828125 62 41.398438 62 L 43.464844 62 C 44.039062 62 44.5 61.539062 44.5 60.964844 C 44.5 60.394531 44.035156 59.933594 43.464844 59.933594 Z M 43.464844 59.933594 "/>
<path style=" stroke:none;fill-rule:nonzero;fill:rgb(43.529412%,74.509804%,29.019608%);fill-opacity:1;" d="M 37.265625 59.933594 L 35.199219 59.933594 C 34.628906 59.933594 34.167969 60.394531 34.167969 60.964844 C 34.167969 61.539062 34.628906 62 35.199219 62 L 37.265625 62 C 37.835938 62 38.300781 61.539062 38.300781 60.964844 C 38.300781 60.394531 37.835938 59.933594 37.265625 59.933594 Z M 37.265625 59.933594 "/>
<path style=" stroke:none;fill-rule:nonzero;fill:rgb(43.529412%,74.509804%,29.019608%);fill-opacity:1;" d="M 48.632812 51.667969 C 48.632812 51.09375 48.171875 50.632812 47.601562 50.632812 L 45.535156 50.632812 C 44.960938 50.632812 44.5 51.09375 44.5 51.667969 C 44.5 52.238281 44.960938 52.699219 45.535156 52.699219 L 47.601562 52.699219 C 48.171875 52.699219 48.632812 52.238281 48.632812 51.667969 Z M 48.632812 51.667969 "/>
<path style=" stroke:none;fill-rule:nonzero;fill:rgb(43.529412%,74.509804%,29.019608%);fill-opacity:1;" d="M 42.433594 51.667969 C 42.433594 51.09375 41.972656 50.632812 41.402344 50.632812 L 39.332031 50.632812 C 38.761719 50.632812 38.300781 51.09375 38.300781 51.667969 C 38.300781 52.238281 38.761719 52.699219 39.332031 52.699219 L 41.402344 52.699219 C 41.972656 52.699219 42.433594 52.238281 42.433594 51.667969 Z M 42.433594 51.667969 "/>
<path style=" stroke:none;fill-rule:nonzero;fill:rgb(43.529412%,74.509804%,29.019608%);fill-opacity:1;" d="M 49.59375 59.933594 L 47.597656 59.933594 C 47.027344 59.933594 46.566406 60.394531 46.566406 60.964844 C 46.566406 61.539062 47.027344 62 47.597656 62 L 49.636719 62 L 49.664062 60.964844 L 49.664062 62 C 50.238281 62 50.664062 61.535156 50.664062 60.964844 C 50.664062 60.394531 50.164062 59.933594 49.59375 59.933594 Z M 49.59375 59.933594 "/>
<path style=" stroke:none;fill-rule:nonzero;fill:rgb(43.529412%,74.509804%,29.019608%);fill-opacity:1;" d="M 53.25 54.476562 C 53.472656 54.476562 53.699219 54.402344 53.886719 54.253906 C 54.335938 53.902344 54.414062 53.25 54.058594 52.804688 C 53.539062 52.144531 52.871094 51.597656 52.117188 51.226562 C 51.605469 50.96875 50.988281 51.179688 50.734375 51.691406 C 50.476562 52.203125 50.6875 52.820312 51.199219 53.074219 C 51.675781 53.3125 52.105469 53.660156 52.433594 54.082031 C 52.640625 54.339844 52.941406 54.476562 53.25 54.476562 Z M 53.25 54.476562 "/>
<path style=" stroke:none;fill-rule:nonzero;fill:rgb(43.529412%,74.509804%,29.019608%);fill-opacity:1;" d="M 57.191406 41.054688 C 56.746094 41.238281 56.277344 41.332031 55.792969 41.332031 L 55.570312 41.332031 C 55 41.332031 54.539062 41.796875 54.539062 42.367188 C 54.539062 42.9375 55 43.398438 55.570312 43.398438 L 55.792969 43.398438 C 56.554688 43.398438 57.292969 43.25 57.988281 42.957031 C 58.515625 42.738281 58.761719 42.132812 58.542969 41.605469 C 58.320312 41.082031 57.710938 40.832031 57.191406 41.054688 Z M 57.191406 41.054688 "/>
<path style=" stroke:none;fill-rule:nonzero;fill:rgb(43.529412%,74.509804%,29.019608%);fill-opacity:1;" d="M 28.964844 30.851562 C 29.503906 30.671875 29.800781 30.085938 29.621094 29.546875 C 29.503906 29.183594 29.441406 28.804688 29.441406 28.421875 C 29.445312 28.265625 29.453125 28.109375 29.472656 27.957031 C 29.542969 27.390625 29.140625 26.871094 28.574219 26.800781 C 27.992188 26.738281 27.492188 27.132812 27.421875 27.699219 C 27.394531 27.933594 27.378906 28.167969 27.375 28.414062 C 27.375 29.023438 27.472656 29.621094 27.65625 30.191406 C 27.800781 30.625 28.207031 30.902344 28.640625 30.902344 C 28.746094 30.902344 28.855469 30.886719 28.964844 30.851562 Z M 28.964844 30.851562 "/>
<path style=" stroke:none;fill-rule:nonzero;fill:rgb(43.529412%,74.509804%,29.019608%);fill-opacity:1;" d="M 24.867188 59.933594 L 22.800781 59.933594 C 22.226562 59.933594 21.765625 60.394531 21.765625 60.964844 C 21.765625 61.539062 22.226562 62 22.800781 62 L 24.867188 62 C 25.4375 62 25.898438 61.539062 25.898438 60.964844 C 25.898438 60.394531 25.4375 59.933594 24.867188 59.933594 Z M 24.867188 59.933594 "/>
<path style=" stroke:none;fill-rule:nonzero;fill:rgb(43.529412%,74.509804%,29.019608%);fill-opacity:1;" d="M 35.257812 52.28125 C 35.652344 52.28125 36.027344 52.054688 36.199219 51.675781 C 36.4375 51.15625 36.210938 50.542969 35.691406 50.308594 C 35.207031 50.085938 34.765625 49.75 34.421875 49.339844 C 34.054688 48.902344 33.402344 48.847656 32.964844 49.214844 C 32.527344 49.582031 32.472656 50.234375 32.839844 50.671875 C 33.378906 51.3125 34.070312 51.839844 34.832031 52.1875 C 34.96875 52.25 35.117188 52.28125 35.257812 52.28125 Z M 35.257812 52.28125 "/>
<path style=" stroke:none;fill-rule:nonzero;fill:rgb(43.529412%,74.509804%,29.019608%);fill-opacity:1;" d="M 58.636719 32.796875 C 57.898438 32.367188 57.09375 32.117188 56.242188 32.050781 C 55.675781 32.007812 55.175781 32.429688 55.132812 33 C 55.089844 33.570312 55.511719 34.066406 56.082031 34.109375 C 56.621094 34.152344 57.132812 34.3125 57.601562 34.582031 C 57.765625 34.679688 57.941406 34.722656 58.117188 34.722656 C 58.476562 34.722656 58.824219 34.539062 59.011719 34.207031 C 59.300781 33.714844 59.132812 33.082031 58.636719 32.796875 Z M 58.636719 32.796875 "/>
<path style=" stroke:none;fill-rule:nonzero;fill:rgb(43.529412%,74.509804%,29.019608%);fill-opacity:1;" d="M 31.066406 59.933594 L 29 59.933594 C 28.429688 59.933594 27.964844 60.394531 27.964844 60.964844 C 27.964844 61.539062 28.429688 62 29 62 L 31.066406 62 C 31.636719 62 32.097656 61.539062 32.097656 60.964844 C 32.097656 60.394531 31.636719 59.933594 31.066406 59.933594 Z M 31.066406 59.933594 "/>
<path style=" stroke:none;fill-rule:nonzero;fill:rgb(43.529412%,74.509804%,29.019608%);fill-opacity:1;" d="M 33.640625 46.332031 C 33.742188 45.800781 33.957031 45.3125 34.28125 44.875 C 34.617188 44.414062 34.519531 43.769531 34.058594 43.429688 C 33.601562 43.09375 32.953125 43.1875 32.613281 43.648438 C 32.109375 44.335938 31.769531 45.109375 31.609375 45.945312 C 31.503906 46.503906 31.867188 47.046875 32.429688 47.15625 C 32.496094 47.167969 32.5625 47.171875 32.625 47.171875 C 33.109375 47.171875 33.542969 46.828125 33.640625 46.332031 Z M 33.640625 46.332031 "/>
<path style=" stroke:none;fill-rule:nonzero;fill:rgb(43.529412%,74.509804%,29.019608%);fill-opacity:1;" d="M 50.625 15.5 C 53.757812 15.5 56.308594 12.949219 56.308594 9.816406 C 56.308594 6.683594 53.757812 4.132812 50.625 4.132812 C 47.492188 4.132812 44.941406 6.683594 44.941406 9.816406 C 44.941406 12.949219 47.492188 15.5 50.625 15.5 Z M 50.625 6.199219 C 52.621094 6.199219 54.242188 7.824219 54.242188 9.816406 C 54.242188 11.8125 52.621094 13.433594 50.625 13.433594 C 48.632812 13.433594 47.007812 11.8125 47.007812 9.816406 C 47.007812 7.824219 48.632812 6.199219 50.625 6.199219 Z M 50.625 6.199219 "/>
<path style=" stroke:none;fill-rule:nonzero;fill:rgb(43.529412%,74.509804%,29.019608%);fill-opacity:1;" d="M 12.910156 32.035156 C 9.488281 32.035156 6.710938 34.8125 6.710938 38.234375 C 6.710938 41.652344 9.488281 44.433594 12.910156 44.433594 C 16.328125 44.433594 19.109375 41.652344 19.109375 38.234375 C 19.109375 34.8125 16.328125 32.035156 12.910156 32.035156 Z M 12.910156 42.367188 C 10.628906 42.367188 8.777344 40.511719 8.777344 38.234375 C 8.777344 35.953125 10.628906 34.101562 12.910156 34.101562 C 15.1875 34.101562 17.042969 35.953125 17.042969 38.234375 C 17.042969 40.511719 15.1875 42.367188 12.910156 42.367188 Z M 12.910156 42.367188 "/>
</g>
</svg>
