<svg xmlns="http://www.w3.org/2000/svg" width="437.702" height="391.102" viewBox="0 0 437.702 391.102">
  <g id="speech-bubble_1_" data-name="speech-bubble (1)" transform="translate(0 -23.301)">
    <g id="Group_5" data-name="Group 5">
      <g id="Group_4" data-name="Group 4">
        <path id="Path_2" data-name="Path 2" d="M278.291,237.626H73.9a11.44,11.44,0,0,1-11.4-11.4h0a11.44,11.44,0,0,1,11.4-11.4H278.29a11.44,11.44,0,0,1,11.4,11.4h0A11.426,11.426,0,0,1,278.291,237.626Z" fill="#6fbe4a"/>
        <path id="Path_3" data-name="Path 3" d="M278.291,186.718H73.9a11.44,11.44,0,0,1-11.4-11.4h0a11.44,11.44,0,0,1,11.4-11.4H278.29a11.44,11.44,0,0,1,11.4,11.4h0A11.438,11.438,0,0,1,278.291,186.718Z" fill="#6fbe4a"/>
        <path id="Path_4" data-name="Path 4" d="M278.291,130.817H73.9a11.44,11.44,0,0,1-11.4-11.4h0a11.44,11.44,0,0,1,11.4-11.4H278.29a11.44,11.44,0,0,1,11.4,11.4h0A11.438,11.438,0,0,1,278.291,130.817Z" fill="#6fbe4a"/>
      </g>
      <path id="Path_5" data-name="Path 5" d="M79.618,379.568a19.324,19.324,0,0,1-19.34-19.287V314.226A82.542,82.542,0,0,1,0,234.891V105.83A82.617,82.617,0,0,1,82.511,23.3H272.644a82.605,82.605,0,0,1,82.511,82.529V234.873A82.617,82.617,0,0,1,272.644,317.4H154.929L92.551,374.486A18.994,18.994,0,0,1,79.618,379.568Zm2.893-338.6a64.938,64.938,0,0,0-64.866,64.866V234.874A64.873,64.873,0,0,0,70.723,298.54l7.2,1.341v60.384c0,1.57,1.676,1.641,1.694,1.641a1.537,1.537,0,0,0,1.023-.423l67.442-61.725H272.66a64.942,64.942,0,0,0,64.866-64.883V105.83A64.953,64.953,0,0,0,272.66,40.947H82.511Z" fill="#6fbe4a"/>
      <path id="Path_6" data-name="Path 6" d="M366.7,76.821c.106,1.659.494,3.229.494,4.923V94.52a64.912,64.912,0,0,1,52.849,63.666V287.247a64.855,64.855,0,0,1-62.96,64.689v.071H339.433v43.109c0,1.57-1.676,1.641-1.694,1.641a1.537,1.537,0,0,1-1.023-.423L288.3,352.008l-12.476.124H239.752a64.141,64.141,0,0,1-50.837-25.075H168.181c14.011,25.339,40.6,42.72,71.589,42.72h41.82l43.232,39.562a19.063,19.063,0,0,0,12.934,5.064,19.324,19.324,0,0,0,19.34-19.287V369.565A82.513,82.513,0,0,0,437.7,287.23V158.185C437.685,116.612,406.716,82.485,366.7,76.821Z" fill="#6fbe4a"/>
    </g>
  </g>
</svg>
