<svg xmlns="http://www.w3.org/2000/svg" width="420" height="512.002" viewBox="0 0 420 512.002">
  <g id="flyer" transform="translate(-46.001 0)">
    <g id="Group_7" data-name="Group 7">
      <g id="Group_6" data-name="Group 6">
        <path id="Path_25" data-name="Path 25" d="M456,111a10,10,0,0,0,10-10V10A10,10,0,0,0,452.932.483L256,63.989,59.071.483A10,10,0,0,0,46,10V437.506a10,10,0,0,0,6.931,9.518l200,64.495h0a10,10,0,0,0,6.137,0l200-64.495A10,10,0,0,0,466,437.507V182.174a10,10,0,0,0-20,0v248.05L266,488.269V81.778L446,23.733V101A10,10,0,0,0,456,111ZM246,488.269,66,430.224V23.733L246,81.778Z" fill="#6fbe4a"/>
      </g>
    </g>
    <g id="Group_9" data-name="Group 9">
      <g id="Group_8" data-name="Group 8">
        <path id="Path_26" data-name="Path 26" d="M463.07,133.931A9.992,9.992,0,1,0,466,141,10.072,10.072,0,0,0,463.07,133.931Z" fill="#6fbe4a"/>
      </g>
    </g>
    <g id="Group_11" data-name="Group 11">
      <g id="Group_10" data-name="Group 10">
        <path id="Path_27" data-name="Path 27" d="M210.289,117.326,107.851,84.292a10,10,0,0,0-13.069,9.517V208.025a10,10,0,0,0,6.93,9.519l102.439,33.034a10,10,0,0,0,13.069-9.518V126.844A10,10,0,0,0,210.289,117.326Zm-13.068,110-82.439-26.584v-93.2l82.439,26.584Z" fill="#6fbe4a"/>
      </g>
    </g>
    <g id="Group_13" data-name="Group 13">
      <g id="Group_12" data-name="Group 12">
        <path id="Path_28" data-name="Path 28" d="M210.29,292.844,107.851,259.81a10,10,0,0,0-6.139,19.035l102.439,33.034a10,10,0,0,0,6.139-19.035Z" fill="#6fbe4a"/>
      </g>
    </g>
    <g id="Group_15" data-name="Group 15">
      <g id="Group_14" data-name="Group 14">
        <path id="Path_29" data-name="Path 29" d="M210.29,348.174,107.851,315.14a10,10,0,0,0-6.139,19.035l102.439,33.034a10,10,0,0,0,6.139-19.035Z" fill="#6fbe4a"/>
      </g>
    </g>
    <g id="Group_17" data-name="Group 17">
      <g id="Group_16" data-name="Group 16">
        <path id="Path_30" data-name="Path 30" d="M210.29,403.5,107.851,370.47a10,10,0,0,0-6.139,19.035l102.439,33.034A10,10,0,0,0,210.29,403.5Z" fill="#6fbe4a"/>
      </g>
    </g>
    <g id="Group_19" data-name="Group 19">
      <g id="Group_18" data-name="Group 18">
        <path id="Path_31" data-name="Path 31" d="M412.953,257.687A10,10,0,0,0,404,256.253L301.559,289.287a10,10,0,0,0-6.931,9.518V413.021a10,10,0,0,0,13.069,9.518l102.438-33.034a10,10,0,0,0,6.931-9.518V265.771A10,10,0,0,0,412.953,257.687ZM397.066,372.7l-82.438,26.584v-93.2L397.066,279.5v93.2Z" fill="#6fbe4a"/>
      </g>
    </g>
    <g id="Group_21" data-name="Group 21">
      <g id="Group_20" data-name="Group 20">
        <path id="Path_32" data-name="Path 32" d="M416.583,201.4A10,10,0,0,0,404,194.952L301.558,227.986a10,10,0,1,0,6.139,19.036l102.438-33.034A10,10,0,0,0,416.583,201.4Z" fill="#6fbe4a"/>
      </g>
    </g>
    <g id="Group_23" data-name="Group 23">
      <g id="Group_22" data-name="Group 22">
        <path id="Path_33" data-name="Path 33" d="M416.583,146.07A10,10,0,0,0,404,139.622L301.558,172.656a10,10,0,1,0,6.139,19.036l102.438-33.034A10,10,0,0,0,416.583,146.07Z" fill="#6fbe4a"/>
      </g>
    </g>
    <g id="Group_25" data-name="Group 25">
      <g id="Group_24" data-name="Group 24">
        <path id="Path_34" data-name="Path 34" d="M416.583,90.741A10,10,0,0,0,404,84.293L301.558,117.327a10,10,0,1,0,6.139,19.036l102.438-33.034A10,10,0,0,0,416.583,90.741Z" fill="#6fbe4a"/>
      </g>
    </g>
  </g>
</svg>
