<svg xmlns="http://www.w3.org/2000/svg" width="41.864" height="41.23" viewBox="0 0 41.864 41.23"><g transform="translate(-0.001 -0.5)"><path d="M40.876,225.007a3.792,3.792,0,0,0-2.339-.98,3.348,3.348,0,0,0-2.572.979l-4.655,4.606a3.09,3.09,0,0,0-.315-.449,3.018,3.018,0,0,0-2.358-1.054H22.12a13.365,13.365,0,0,1-3.563-.473,8.766,8.766,0,0,0-8.177,1.73,11.893,11.893,0,0,0-2.129,2.286l-1.168-1.134a.831.831,0,0,0-.576-.234H6.5a.832.832,0,0,0-.591.254l-5.68,5.9A.824.824,0,0,0,.256,237.6l9.606,9.147a.823.823,0,0,0,1.158-.021l5.627-5.773a.828.828,0,0,0-.016-1.172l-.49-.475,1.121-.126a17.823,17.823,0,0,1,2.051-.119h9.914a7.443,7.443,0,0,0,4.067-1.047l.027-.018a5.488,5.488,0,0,0,1.05-.954l6.681-7.86a2.877,2.877,0,0,0-.178-4.176ZM10.409,244.995,1.992,236.98l4.534-4.708,8.368,8.121ZM39.8,228.117l-6.681,7.86a3.85,3.85,0,0,1-.723.659,5.857,5.857,0,0,1-3.167.78H19.314a19.445,19.445,0,0,0-2.238.13l-2.465.277-5.161-5.009a10.271,10.271,0,0,1,1.974-2.171,7.089,7.089,0,0,1,6.7-1.419,15.011,15.011,0,0,0,4,.533h6.516a1.488,1.488,0,0,1,1.483,1.613,1.784,1.784,0,0,1-.386,1.143,1.4,1.4,0,0,1-1.123.471H22.938a.824.824,0,0,0,0,1.647h5.672a3.054,3.054,0,0,0,2.378-1.052,3.382,3.382,0,0,0,.776-2.1l5.361-5.3a1.928,1.928,0,0,1,2.633.044,1.241,1.241,0,0,1,.04,1.9Zm0,0" transform="translate(0 -205.246)"/><path d="M230.864,333.857a.823.823,0,1,0-1.6.376l.008.034a.824.824,0,0,0,.8.636.834.834,0,0,0,.189-.022.824.824,0,0,0,.614-.99Zm0,0" transform="translate(-210.493 -305.516)"/><path d="M45.685,17.875h8.025a1.982,1.982,0,0,0,1.17-.381,1.982,1.982,0,0,0,1.17.381h8.025a1.982,1.982,0,0,0,1.17-.381,1.982,1.982,0,0,0,1.17.381H74.44a2,2,0,0,0,1.994-1.994V12.139a4.318,4.318,0,0,0-2.349-3.861,4.75,4.75,0,1,0-7.315,0,4.314,4.314,0,0,0-1.525,1.308A4.306,4.306,0,0,0,63.72,8.278a4.75,4.75,0,1,0-7.315,0A4.306,4.306,0,0,0,54.88,9.586a4.31,4.31,0,0,0-1.525-1.308,4.75,4.75,0,1,0-7.314,0,4.319,4.319,0,0,0-2.349,3.861v3.742a2,2,0,0,0,1.994,1.994ZM70.428,2.147a3.1,3.1,0,1,1-3.1,3.1A3.107,3.107,0,0,1,70.428,2.147ZM68.288,9.49a4.733,4.733,0,0,0,4.279,0,2.676,2.676,0,0,1,2.22,2.649v3.742a.347.347,0,0,1-.347.347H66.415a.347.347,0,0,1-.347-.347V12.139A2.676,2.676,0,0,1,68.288,9.49ZM60.062,2.147a3.1,3.1,0,1,1-3.1,3.1A3.107,3.107,0,0,1,60.062,2.147ZM57.923,9.49a4.733,4.733,0,0,0,4.279,0,2.676,2.676,0,0,1,2.22,2.649v3.742a.347.347,0,0,1-.347.347H56.05a.347.347,0,0,1-.347-.347V12.139A2.676,2.676,0,0,1,57.923,9.49ZM49.7,2.147a3.1,3.1,0,1,1-3.1,3.1A3.107,3.107,0,0,1,49.7,2.147Zm-4.359,9.992a2.676,2.676,0,0,1,2.22-2.649,4.733,4.733,0,0,0,4.279,0,2.676,2.676,0,0,1,2.22,2.649v3.742a.347.347,0,0,1-.347.347H45.685a.347.347,0,0,1-.347-.347Zm0,0" transform="translate(-40.118)"/></g></svg>