<svg xmlns="http://www.w3.org/2000/svg" width="334.451" height="373.941" viewBox="0 0 334.451 373.941">
  <g id="Page-1" transform="translate(0.095 0.503)">
    <g id="_004---messgae" data-name="004---messgae" transform="translate(0.416 -0.001)">
      <path id="Shape" d="M19.034,324.369h72.44a55.967,55.967,0,0,0,111.2,0h72.44a18.32,18.32,0,0,0,16.977-11.007,18.755,18.755,0,0,0-3.37-20.428,111.934,111.934,0,0,1-29.712-68.062V196.721A99.41,99.41,0,1,0,182.34,15.711,49.214,49.214,0,0,0,147.075,1,49.8,49.8,0,0,0,97.326,50.753a49.127,49.127,0,0,0,.3,5.447A111.934,111.934,0,0,0,35.14,156.469v68.4A111.107,111.107,0,0,1,5.415,292.954a18.737,18.737,0,0,0-3.358,20.409A18.32,18.32,0,0,0,19.034,324.37Zm128.04,37.311a43.6,43.6,0,0,1-43.088-37.311h86.177A43.6,43.6,0,0,1,147.075,361.681ZM321.195,100.5a87.153,87.153,0,0,1-87.06,87.06,86.028,86.028,0,0,1-32.9-6.436,6.281,6.281,0,0,0-4.353-.149l-45.769,15.291,13.867-38.182a6.219,6.219,0,0,0-.852-5.833A86.09,86.09,0,0,1,147.075,100.5a87.06,87.06,0,0,1,174.12,0ZM109.763,50.752a37.349,37.349,0,0,1,37.311-37.311A36.839,36.839,0,0,1,171.893,23,100.119,100.119,0,0,0,151.8,44.714c-1.58-.068-3.14-.18-4.726-.18a111.182,111.182,0,0,0-37.311,6.523v-.3ZM14.619,301.361a122.338,122.338,0,0,0,32.958-76.488v-68.4a99.56,99.56,0,0,1,97.171-99.379,98.993,98.993,0,0,0,7.425,99.839l-12.736,35.054a12.437,12.437,0,0,0,11.629,16.728,12.568,12.568,0,0,0,3.943-.622l43.679-14.595a97.1,97.1,0,0,0,47.883,5.64v25.739a122.3,122.3,0,0,0,32.958,76.439,6.418,6.418,0,0,1,1.188,7.021,5.908,5.908,0,0,1-5.6,3.6H19.034a5.908,5.908,0,0,1-5.6-3.6,6.4,6.4,0,0,1,1.182-6.971Z" transform="translate(-0.416 -0.999)" fill="#6fbe4a" stroke="#6fbe4a" stroke-width="1"/>
      <path id="Shape-2" data-name="Shape" d="M12.219,59.437H37.093a6.219,6.219,0,1,0,0-12.437H12.219a6.219,6.219,0,1,0,0,12.437Z" transform="translate(28.724 239.059)" fill="#6fbe4a" stroke="#6fbe4a" stroke-width="1"/>
      <path id="Shape-3" data-name="Shape" d="M14,53.219a6.219,6.219,0,0,0,6.219,6.219H181.9A6.219,6.219,0,0,0,181.9,47H20.219A6.219,6.219,0,0,0,14,53.219Z" transform="translate(70.473 239.059)" fill="#6fbe4a" stroke="#6fbe4a" stroke-width="1"/>
      <path id="Shape-4" data-name="Shape" d="M16.219,90.451a6.219,6.219,0,0,0,6.219-6.219A74.337,74.337,0,0,1,50.471,25.983a6.219,6.219,0,1,0-7.779-9.7A86.687,86.687,0,0,0,10,84.233a6.219,6.219,0,0,0,6.219,6.219Z" transform="translate(49.598 71.236)" fill="#6fbe4a" stroke="#6fbe4a" stroke-width="1"/>
      <path id="Shape-5" data-name="Shape" d="M27,32.656A18.656,18.656,0,1,0,45.656,14,18.656,18.656,0,0,0,27,32.656Zm18.656-6.219a6.219,6.219,0,1,1-6.219,6.219A6.219,6.219,0,0,1,45.656,26.437Z" transform="translate(138.314 66.846)" fill="#6fbe4a" stroke="#6fbe4a" stroke-width="1"/>
      <path id="Shape-6" data-name="Shape" d="M53.656,51.311A18.656,18.656,0,1,0,35,32.656,18.656,18.656,0,0,0,53.656,51.311Zm0-24.874a6.219,6.219,0,1,1-6.219,6.219A6.219,6.219,0,0,1,53.656,26.437Z" transform="translate(180.063 66.846)" fill="#6fbe4a" stroke="#6fbe4a" stroke-width="1"/>
      <path id="Shape-7" data-name="Shape" d="M61.656,51.311A18.656,18.656,0,1,0,43,32.656,18.656,18.656,0,0,0,61.656,51.311Zm0-24.874a6.219,6.219,0,1,1-6.219,6.219A6.219,6.219,0,0,1,61.656,26.437Z" transform="translate(221.811 66.846)" fill="#6fbe4a" stroke="#6fbe4a" stroke-width="1"/>
    </g>
  </g>
</svg>
