<svg xmlns="http://www.w3.org/2000/svg" width="512" height="403.967" viewBox="0 0 512 403.967">
  <g id="megaphone" transform="translate(0 -54.016)">
    <g id="Group_29" data-name="Group 29">
      <g id="Group_28" data-name="Group 28">
        <path id="Path_46" data-name="Path 46" d="M502,246H473.963a10,10,0,1,0,0,20H502a10,10,0,0,0,0-20Z" fill="#6fbe4a"/>
      </g>
    </g>
    <g id="Group_31" data-name="Group 31">
      <g id="Group_30" data-name="Group 30">
        <path id="Path_47" data-name="Path 47" d="M500.981,192.611a10,10,0,0,0-13.659-3.66l-18.359,10.6a10,10,0,1,0,10,17.32l18.359-10.6A10,10,0,0,0,500.981,192.611Z" fill="#6fbe4a"/>
      </g>
    </g>
    <g id="Group_33" data-name="Group 33">
      <g id="Group_32" data-name="Group 32">
        <path id="Path_48" data-name="Path 48" d="M497.321,305.73l-18.359-10.6a10,10,0,0,0-10,17.319l18.359,10.6a10,10,0,1,0,10-17.319Z" fill="#6fbe4a"/>
      </g>
    </g>
    <g id="Group_35" data-name="Group 35">
      <g id="Group_34" data-name="Group 34">
        <path id="Path_49" data-name="Path 49" d="M424.327,118.013c-9.869-43.064-23.233-64-40.857-64a21.216,21.216,0,0,0-9.7,2.341L6.128,210.772A10,10,0,0,0,0,219.99v71.994A10,10,0,0,0,6.127,301.2l53.931,22.656.1.041,25.839,10.853v62.735a28.53,28.53,0,0,0,28.5,28.5h90.993a28.53,28.53,0,0,0,28.5-28.5v-.567l139.8,58.728a21.221,21.221,0,0,0,9.688,2.334c17.624,0,30.988-20.933,40.857-64C432.8,357.014,437.467,308.01,437.467,256S432.8,154.985,424.327,118.013ZM213.983,397.489a8.508,8.508,0,0,1-8.5,8.5H114.491a8.508,8.508,0,0,1-8.5-8.5V343.155l107.992,45.366v8.968ZM73.994,308.022V255.841a10,10,0,0,0-20,0v43.78L20,285.339v-58.7L351.619,87.35a229.863,229.863,0,0,0-9.005,30.663c-.31,1.35-.612,2.722-.912,4.1L228.325,164.79a10,10,0,1,0,7.044,18.715l102.052-38.411c-5.165,32.412-7.946,70.76-7.946,110.9,0,52.011,4.666,101.015,13.139,137.987a230.213,230.213,0,0,0,9.005,30.661Zm276.292-88.85a37.489,37.489,0,0,1,.011,73.908c-.545-12.075-.824-24.48-.824-37.08C349.473,243.488,349.749,231.168,350.286,219.172Zm54.547,170.349c-9.13,39.841-19.328,48.465-21.363,48.465a1.159,1.159,0,0,1-.292-.05c-.162-.079-.32-.164-.488-.235l-.238-.1c-3.356-2.023-12.266-12.827-20.345-48.081-4.974-21.7-8.58-47.838-10.638-76.4a57.48,57.48,0,0,0-.018-113.985c2.054-28.663,5.668-54.886,10.656-76.654,8.074-35.233,16.98-46.046,20.34-48.077l.883-.371a1.1,1.1,0,0,1,.141-.017c2.035,0,12.233,8.624,21.363,48.465,8.146,35.55,12.634,82.969,12.634,133.521S412.981,353.97,404.833,389.521Z" fill="#6fbe4a"/>
      </g>
    </g>
    <g id="Group_37" data-name="Group 37">
      <g id="Group_36" data-name="Group 36">
        <path id="Path_50" data-name="Path 50" d="M199.505,186.34a10,10,0,0,0-12.871-5.858l-.229.086a10,10,0,1,0,7.013,18.728l.229-.086A10,10,0,0,0,199.505,186.34Z" fill="#6fbe4a"/>
      </g>
    </g>
  </g>
</svg>
